<svg width="62.038" height="26.399" viewBox="0 0 62.038 26.399" xmlns="http://www.w3.org/2000/svg"><g fill="#fff" stroke="#fff"><path d="M31.156 15.135c-1.089 0-1.815-.825-1.815-2.255v-.088c0-1.43.693-2.233 1.804-2.233 1.111 0 1.815.825 1.815 2.222v.088c0 1.408-.693 2.266-1.804 2.266zm-.044 1.771c2.541 0 4.202-1.65 4.202-4.07v-.088c0-2.442-1.77-3.949-4.169-3.949-2.354 0-4.158 1.606-4.158 4.004v.088c0 2.365 1.584 4.015 4.125 4.015zM36.414 16.774h2.266v-2.783h2.431v-1.66h-2.43v-1.673h3.046V8.91h-5.313zM42.783 16.774h2.266v-2.783h2.431v-1.66h-2.43v-1.673h3.046V8.91h-5.313z" stroke-width=".011"/></g></svg>