<svg width="131.74" height="13" viewBox="0 0 131.74 13" xmlns="http://www.w3.org/2000/svg"><g fill="#fff" stroke="#fff"><path d="M3.745 7.64L1.314 1.776c-.104-.254-.277-.323-.484-.323-.254 0-.53.173-.53.519 0 .069.023.138.057.23l2.916 6.8a.47.47 0 00.472.31.47.47 0 00.473-.31l2.916-6.8a.672.672 0 00.057-.23c0-.346-.276-.519-.53-.519-.207 0-.38.07-.484.323zM7.664 4.667v2.351c0 1.36.76 2.34 2.086 2.34.76 0 1.336-.346 1.66-.968v.368c0 .38.241.554.54.554.312 0 .542-.208.542-.554v-4.09c0-.3-.219-.542-.541-.542a.534.534 0 00-.542.541v2.294c0 .783-.495 1.417-1.36 1.417-.864 0-1.302-.6-1.302-1.406V4.667c0-.3-.219-.541-.542-.541-.345 0-.541.253-.541.541zM16.48 4.08c-1.487 0-2.582 1.129-2.582 2.639 0 1.44.91 2.639 2.628 2.639.83 0 1.613-.334 2.051-.842a.48.48 0 00.138-.31.436.436 0 00-.449-.45c-.138 0-.265.08-.357.173-.38.357-.738.564-1.337.564-.957 0-1.498-.599-1.556-1.394h3.446c.311 0 .415-.184.415-.369 0-1.475-.945-2.65-2.397-2.65zm1.394 2.143H15.04c.104-.714.646-1.28 1.44-1.28.784 0 1.303.589 1.395 1.28zM21.378 8.77V1.994c0-.3-.22-.542-.542-.542a.527.527 0 00-.542.542V8.77c0 .3.22.542.542.542a.527.527 0 00.542-.542zM28.062 6.719c0-1.452-1.038-2.64-2.64-2.64-1.601 0-2.638 1.188-2.638 2.64 0 1.452 1.037 2.639 2.639 2.639 1.601 0 2.639-1.187 2.639-2.64zm-1.084 0c0 .933-.541 1.717-1.555 1.717-1.015 0-1.556-.784-1.556-1.717 0-.934.541-1.717 1.556-1.717 1.014 0 1.555.783 1.555 1.717zM33.409 7.883c0-.934-.645-1.268-1.89-1.625-.83-.242-1.176-.37-1.176-.76 0-.404.392-.554.969-.554.414 0 .772.092 1.094.265.173.092.323.161.473.161.3 0 .415-.196.415-.403 0-.23-.22-.415-.53-.565a3.406 3.406 0 00-1.43-.322c-1.244 0-2.04.564-2.04 1.429 0 .83.52 1.313 1.937 1.694.807.219 1.13.368 1.13.76 0 .358-.335.588-.957.588-.553 0-.991-.219-1.303-.45-.126-.092-.242-.16-.426-.16-.23 0-.415.15-.415.38 0 .15.07.322.23.449.462.357 1.107.588 1.833.588 1.371 0 2.086-.623 2.086-1.475zM37.777 6.719c0 1.532 1.083 2.639 2.408 2.639.772 0 1.464-.392 1.81-.991v.391c0 .3.195.554.53.554.334 0 .518-.242.518-.542V1.994c0-.3-.219-.542-.541-.542a.527.527 0 00-.542.542V5.07a2.073 2.073 0 00-1.775-.991c-1.325 0-2.408 1.048-2.408 2.639zm1.083 0c0-1.038.61-1.74 1.544-1.74s1.556.818 1.556 1.74-.622 1.74-1.556 1.74c-.933 0-1.544-.703-1.544-1.74zM45.855 8.77V4.667c0-.3-.23-.541-.541-.541a.534.534 0 00-.542.541V8.77c0 .3.219.542.542.542a.527.527 0 00.541-.542zM44.68 2.708a.64.64 0 00.634.634.64.64 0 00.633-.634.64.64 0 00-.633-.634.64.64 0 00-.634.634zM50.638 4.61a.484.484 0 00-.507-.507c-.726 0-1.268.415-1.464 1.071V4.68c0-.334-.219-.553-.53-.553a.533.533 0 00-.553.553V8.77c0 .3.196.542.541.542a.534.534 0 00.542-.542V6.88c0-1.164.553-1.763 1.464-1.763a.497.497 0 00.507-.507zM53.726 4.08c-1.486 0-2.581 1.129-2.581 2.639 0 1.44.91 2.639 2.627 2.639.83 0 1.614-.334 2.052-.842a.48.48 0 00.138-.31.436.436 0 00-.45-.45c-.138 0-.265.08-.357.173-.38.357-.737.564-1.337.564-.956 0-1.498-.599-1.555-1.394h3.445c.312 0 .415-.184.415-.369 0-1.475-.945-2.65-2.397-2.65zm1.395 2.143h-2.835c.103-.714.645-1.28 1.44-1.28.784 0 1.303.589 1.395 1.28zM59.926 4.08c-1.694 0-2.696 1.164-2.696 2.639 0 1.475 1.002 2.639 2.696 2.639.726 0 1.44-.311 1.787-.726a.528.528 0 00.161-.38c0-.231-.184-.439-.496-.439-.195 0-.322.162-.46.277-.266.23-.6.357-.98.357-1.072 0-1.625-.806-1.625-1.728 0-.922.553-1.729 1.625-1.729.38 0 .714.127.98.357.138.116.265.277.46.277.312 0 .496-.208.496-.438a.528.528 0 00-.161-.38c-.346-.415-1.06-.726-1.787-.726zM65.009 8.77V5.117h.99c.254 0 .45-.196.45-.45a.443.443 0 00-.45-.45h-.99V2.709c0-.3-.22-.541-.542-.541a.527.527 0 00-.542.541v1.51h-.876a.443.443 0 00-.449.45c0 .253.196.449.45.449h.875V8.77c0 .3.22.542.542.542a.527.527 0 00.542-.542zM72.13 6.719c0-1.452-1.037-2.64-2.638-2.64-1.602 0-2.64 1.188-2.64 2.64 0 1.452 1.038 2.639 2.64 2.639 1.601 0 2.639-1.187 2.639-2.64zm-1.083 0c0 .933-.541 1.717-1.555 1.717-1.015 0-1.556-.784-1.556-1.717 0-.934.541-1.717 1.556-1.717 1.014 0 1.555.783 1.555 1.717zM77.478 7.883c0-.934-.645-1.268-1.89-1.625-.83-.242-1.176-.37-1.176-.76 0-.404.392-.554.968-.554.415 0 .773.092 1.095.265.173.092.323.161.473.161.3 0 .415-.196.415-.403 0-.23-.22-.415-.53-.565a3.406 3.406 0 00-1.43-.322c-1.244 0-2.04.564-2.04 1.429 0 .83.52 1.313 1.937 1.694.806.219 1.13.368 1.13.76 0 .358-.335.588-.957.588-.554 0-.991-.219-1.303-.45-.126-.092-.242-.16-.426-.16-.23 0-.415.15-.415.38 0 .15.07.322.23.449.462.357 1.107.588 1.833.588 1.371 0 2.086-.623 2.086-1.475z" stroke-width=".01152"/></g></svg>