<svg width="44.223" height="29" viewBox="0 0 44.223 29" xmlns="http://www.w3.org/2000/svg"><g fill="#47A01A" stroke="#47A01A"><path d="M14.508 4.862c0-.91-.494-1.378-1.43-1.378H1.898c-.754 0-1.378.624-1.378 1.404 0 .754.598 1.404 1.378 1.404h8.476c-2.938 3.484-4.472 7.54-4.472 13.182 0 .858.624 1.534 1.56 1.534.91 0 1.56-.676 1.56-1.534 0-5.616 1.482-9.178 5.226-13.858a1.11 1.11 0 00.26-.754zM28.262 16.458c.78 0 1.352-.572 1.352-1.3 0-.728-.572-1.3-1.352-1.3h-2.054V4.81c0-.858-.468-1.534-1.482-1.534-.468 0-.858.13-1.274.572l-9.334 10.296c-.26.312-.442.598-.442 1.014 0 .754.598 1.3 1.352 1.3h8.112v3.016a1.52 1.52 0 001.534 1.534 1.52 1.52 0 001.534-1.534v-3.016zm-10.53-2.6l5.408-6.006v6.006z" stroke-width=".026"/></g></svg>