<svg width="460.065" height="48" viewBox="0 0 460.065 48" xmlns="http://www.w3.org/2000/svg"><g fill="#fff" stroke="#fff"><path d="M3.845 36.064V5.649h11.406q3.28 0 5.822 1.14 2.542 1.14 3.987 3.291 1.445 2.151 1.445 5.171 0 3.063-1.337 5.192-1.336 2.13-3.877 3.248-2.542 1.119-6.17 1.119H9.494v11.254zm5.649-16.055h5.605q2.716 0 4.236-1.13 1.521-1.13 1.521-3.52t-1.553-3.595q-1.554-1.206-4.16-1.206h-5.65zM31.089 36.064V14.339h5.561v2.846q1.13-1.912 2.835-2.716 1.706-.804 3.683-.804.695 0 1.281.065.587.065 1.13.196l-.695 5.735q-.674-.239-1.401-.358-.728-.12-1.445-.12-2.346 0-3.867 1.401-1.52 1.402-1.52 3.922v11.558zM59.005 36.715q-3.54 0-6.213-1.444-2.672-1.445-4.16-4.03-1.489-2.586-1.489-6.018 0-2.52.859-4.628.858-2.107 2.433-3.66 1.575-1.554 3.693-2.4 2.118-.848 4.638-.848 2.738 0 4.888.967 2.151.966 3.574 2.715 1.423 1.75 1.999 4.084.576 2.336.141 5.095H52.38q-.022 1.716.815 2.998.836 1.282 2.39 2.01 1.553.727 3.66.727 1.869 0 3.585-.543t3.193-1.607l1.956 3.888q-1.021.826-2.542 1.434-1.52.609-3.205.934-1.683.326-3.226.326zm-6.3-14.12H63.98q-.065-2.195-1.455-3.444-1.39-1.25-3.89-1.25-2.476 0-4.083 1.25-1.608 1.249-1.847 3.443zM84.445 36.715q-3.454 0-6.137-1.51-2.683-1.51-4.226-4.106-1.542-2.596-1.542-5.898 0-2.498.912-4.595.913-2.096 2.564-3.65 1.651-1.553 3.878-2.411 2.227-.858 4.855-.858 2.282 0 4.237.608t3.584 1.868l-2.585 4.193q-1.02-.912-2.314-1.357-1.292-.446-2.704-.446-2.13 0-3.661.782-1.532.782-2.357 2.26-.826 1.477-.826 3.584 0 3.129 1.836 4.9 1.836 1.77 5.008 1.77 1.586 0 2.998-.587 1.412-.586 2.455-1.607l2.476 4.214q-1.781 1.326-3.975 2.086-2.195.76-4.476.76zM97.068 36.064V14.339h5.561v21.725zm2.78-25.375q-1.433 0-2.476-.913-1.043-.912-1.043-2.411 0-1.5 1.043-2.412 1.043-.912 2.476-.912 1.434 0 2.477.912 1.043.913 1.043 2.412 0 1.499-1.043 2.411-1.043.913-2.477.913zM119.097 36.715q-3.476 0-6.16-1.575-2.682-1.575-4.203-4.193-1.52-2.618-1.52-5.746 0-2.303.868-4.388.87-2.086 2.466-3.683 1.597-1.597 3.77-2.52 2.172-.923 4.779-.923 3.454 0 6.137 1.564 2.683 1.564 4.215 4.193 1.531 2.629 1.531 5.757 0 2.303-.88 4.378-.88 2.074-2.465 3.682-1.586 1.608-3.759 2.531-2.172.923-4.78.923zm0-4.866q1.825 0 3.27-.815 1.444-.814 2.27-2.303.825-1.488.825-3.53t-.825-3.541q-.826-1.5-2.26-2.303-1.434-.804-3.28-.804-1.847 0-3.292.804-1.444.804-2.259 2.303-.815 1.499-.815 3.541t.826 3.53q.825 1.489 2.26 2.303 1.433.815 3.28.815zM156.03 36.715q-3.542 0-6.214-1.444-2.672-1.445-4.16-4.03-1.488-2.586-1.488-6.018 0-2.52.858-4.628.858-2.107 2.433-3.66 1.575-1.554 3.693-2.4 2.118-.848 4.638-.848 2.738 0 4.889.967 2.15.966 3.573 2.715 1.423 1.75 1.999 4.084.576 2.336.141 5.095h-16.989q-.021 1.716.815 2.998.836 1.282 2.39 2.01 1.553.727 3.66.727 1.869 0 3.585-.543t3.194-1.607l1.955 3.888q-1.021.826-2.542 1.434-1.52.609-3.204.934-1.684.326-3.227.326zm-6.3-14.12h11.274q-.065-2.195-1.455-3.444-1.39-1.25-3.889-1.25-2.477 0-4.084 1.25-1.608 1.249-1.847 3.443zM178.776 36.694q-2.803 0-5.204-.76-2.4-.761-4.073-2.086l1.933-3.954q1.608 1.151 3.542 1.825 1.933.673 3.78.673 1.955 0 3.041-.652 1.087-.651 1.087-1.825 0-1.108-.956-1.629-.956-.521-3.607-1.086-4.214-.826-6.126-2.444-1.912-1.619-1.912-4.465 0-2.02 1.119-3.563 1.119-1.542 3.085-2.4 1.966-.858 4.53-.858 2.498 0 4.725.695 2.227.695 3.834 1.955l-1.846 3.976q-.848-.717-1.934-1.239-1.086-.521-2.292-.803-1.206-.283-2.379-.283-1.716 0-2.77.608-1.053.609-1.053 1.717t.977 1.64q.978.532 3.541 1.119 4.345.934 6.214 2.476 1.868 1.543 1.868 4.324 0 2.129-1.151 3.704-1.152 1.575-3.205 2.455-2.053.88-4.768.88zM193.049 45.188v-30.85h4.91v2.868q1.26-1.586 3.237-2.552 1.977-.967 4.78-.967 3.15 0 5.604 1.477 2.455 1.477 3.857 4.074 1.4 2.596 1.4 5.963 0 2.412-.803 4.497-.804 2.086-2.26 3.66-1.455 1.576-3.465 2.467-2.01.89-4.42.89-2.347 0-4.161-.814-1.814-.815-3.14-2.227v11.514zm11.905-13.34q1.847 0 3.28-.814 1.435-.814 2.26-2.303.826-1.488.826-3.53t-.826-3.541q-.825-1.5-2.27-2.303-1.445-.804-3.27-.804-1.846 0-3.28.804-1.434.804-2.26 2.303-.825 1.499-.825 3.541t.814 3.53q.815 1.489 2.26 2.303 1.445.815 3.291.815zM231.676 36.715q-3.541 0-6.213-1.444-2.673-1.445-4.16-4.03-1.489-2.586-1.489-6.018 0-2.52.858-4.628.858-2.107 2.434-3.66 1.575-1.554 3.693-2.4 2.118-.848 4.638-.848 2.737 0 4.888.967 2.151.966 3.574 2.715 1.423 1.75 1.999 4.084.575 2.336.14 5.095H225.05q-.022 1.716.815 2.998.836 1.282 2.39 2.01 1.553.727 3.66.727 1.868 0 3.585-.543 1.716-.543 3.193-1.607l1.955 3.888q-1.02.826-2.541 1.434-1.521.609-3.205.934-1.683.326-3.226.326zm-6.3-14.12h11.275q-.065-2.195-1.455-3.444-1.39-1.25-3.89-1.25-2.476 0-4.084 1.25-1.607 1.249-1.846 3.443zM257.116 36.715q-3.454 0-6.137-1.51-2.683-1.51-4.226-4.106-1.542-2.596-1.542-5.898 0-2.498.912-4.595.913-2.096 2.564-3.65 1.65-1.553 3.878-2.411 2.227-.858 4.855-.858 2.281 0 4.237.608 1.955.608 3.584 1.868l-2.585 4.193q-1.021-.912-2.314-1.357-1.292-.446-2.705-.446-2.129 0-3.66.782-1.532.782-2.357 2.26-.826 1.477-.826 3.584 0 3.129 1.836 4.9 1.836 1.77 5.007 1.77 1.586 0 2.999-.587 1.412-.586 2.454-1.607l2.477 4.214q-1.781 1.326-3.976 2.086-2.194.76-4.475.76zM269.738 36.064V14.339h5.562v21.725zm2.781-25.375q-1.434 0-2.476-.913Q269 8.864 269 7.365q0-1.5 1.043-2.412 1.042-.912 2.476-.912t2.477.912q1.043.913 1.043 2.412 0 1.499-1.043 2.411-1.043.913-2.477.913zM290.833 36.715q-3.193 0-5.659-1.477-2.466-1.477-3.878-4.084-1.412-2.607-1.412-5.953 0-2.52.804-4.627.804-2.108 2.27-3.65 1.466-1.543 3.476-2.39 2.01-.847 4.4-.847 3.15 0 5.3 1.347 2.151 1.347 3.216 3.497l-.782 1.195V14.34h4.888v21.725h-4.888v-5.388l.782 1.195q-1.065 2.15-3.216 3.497-2.15 1.347-5.3 1.347zm.826-4.866q1.803 0 3.215-.815 1.412-.814 2.238-2.303.825-1.488.825-3.53t-.825-3.541q-.826-1.5-2.238-2.303-1.412-.804-3.215-.804t-3.226.804q-1.423.804-2.238 2.303-.815 1.499-.815 3.541t.815 3.53q.815 1.489 2.238 2.303 1.423.815 3.226.815zM309.865 36.064V4.78h5.561v31.284z" stroke-width=".02173"/></g></svg>