<svg width="194.998" height="13" viewBox="0 0 194.998 13" xmlns="http://www.w3.org/2000/svg"><g fill="#fff" stroke="#fff"><path d="M5.01 7.834L2.068 1.8c-.105-.209-.244-.337-.5-.337-.302 0-.523.186-.523.523v6.87c0 .29.198.534.523.534.337 0 .535-.244.535-.535V4.15L4.52 9.065c.093.198.233.326.488.326.256 0 .395-.128.488-.326L7.915 4.15v4.707c0 .29.197.535.534.535.326 0 .523-.244.523-.535V1.987c0-.337-.22-.523-.523-.523-.255 0-.395.128-.5.337zM11.983 8.845V4.707a.538.538 0 00-.547-.546.538.538 0 00-.546.546v4.138c0 .302.221.546.546.546a.531.531 0 00.547-.546zM10.797 2.73c0 .349.29.64.64.64.348 0 .639-.291.639-.64 0-.348-.29-.639-.64-.639-.348 0-.639.29-.639.64zM17.736 7.95c0-.942-.651-1.279-1.906-1.639-.837-.244-1.186-.372-1.186-.767 0-.407.395-.558.977-.558.418 0 .778.093 1.104.267.174.093.325.163.476.163.302 0 .419-.198.419-.407 0-.232-.221-.418-.535-.57a3.435 3.435 0 00-1.441-.325c-1.255 0-2.057.57-2.057 1.442 0 .836.523 1.324 1.952 1.708.814.22 1.14.372 1.14.767 0 .36-.338.593-.966.593-.557 0-.999-.221-1.313-.453-.128-.093-.244-.163-.43-.163-.232 0-.418.15-.418.383 0 .151.07.326.232.454.465.36 1.116.592 1.848.592 1.383 0 2.104-.627 2.104-1.487zM27.626 8.845V6.439c0-1.36-.674-2.325-2.08-2.325-.825 0-1.488.337-1.94 1.035-.315-.616-.942-1.035-1.78-1.035-.685 0-1.324.36-1.638.977v-.372c0-.302-.174-.558-.546-.558-.337 0-.546.232-.546.558v4.126c0 .302.232.546.546.546a.531.531 0 00.546-.546V6.532c0-.767.465-1.43 1.348-1.43.86 0 1.279.616 1.279 1.418v2.325c0 .302.22.546.546.546a.525.525 0 00.546-.546V6.532c0-.767.523-1.43 1.383-1.43s1.244.616 1.244 1.418v2.325c0 .302.232.546.546.546a.531.531 0 00.546-.546zM34.31 6.776c0-1.465-1.047-2.662-2.662-2.662-1.616 0-2.662 1.197-2.662 2.662 0 1.464 1.046 2.661 2.662 2.661 1.615 0 2.661-1.197 2.661-2.661zm-1.093 0c0 .941-.546 1.732-1.57 1.732-1.022 0-1.568-.79-1.568-1.732s.546-1.732 1.569-1.732 1.569.79 1.569 1.732zM44.41 6.776c0-1.546-1.093-2.662-2.43-2.662-.779 0-1.476.395-1.825 1v-.395c0-.302-.197-.558-.534-.558s-.523.244-.523.546v6.311c0 .302.22.546.546.546a.531.531 0 00.546-.546v-2.58a2.09 2.09 0 001.79 1c1.337 0 2.43-1.058 2.43-2.662zm-1.093 0c0 1.046-.616 1.755-1.558 1.755-.941 0-1.569-.825-1.569-1.755 0-.93.628-1.755 1.57-1.755.94 0 1.557.709 1.557 1.755zM48.907 4.649a.488.488 0 00-.511-.511c-.733 0-1.279.418-1.476 1.08v-.5c0-.336-.221-.557-.535-.557a.537.537 0 00-.558.558v4.126c0 .302.198.546.546.546a.538.538 0 00.547-.546V6.939c0-1.174.558-1.779 1.476-1.779.29 0 .511-.22.511-.511zM52.022 4.114c-1.5 0-2.604 1.14-2.604 2.662 0 1.453.919 2.661 2.65 2.661.837 0 1.628-.337 2.07-.848a.485.485 0 00.139-.314.44.44 0 00-.454-.453c-.14 0-.267.081-.36.174-.383.36-.744.57-1.348.57-.965 0-1.511-.605-1.57-1.407h3.476c.314 0 .418-.186.418-.372 0-1.487-.953-2.673-2.417-2.673zm1.406 2.162H50.57c.105-.72.65-1.29 1.453-1.29.79 0 1.313.593 1.406 1.29zM58.275 4.114c-1.709 0-2.72 1.174-2.72 2.662s1.011 2.661 2.72 2.661c.732 0 1.453-.313 1.801-.732a.533.533 0 00.163-.383c0-.233-.186-.442-.5-.442-.197 0-.325.163-.465.279-.267.232-.604.36-.988.36-1.08 0-1.638-.813-1.638-1.743 0-.93.557-1.743 1.638-1.743.384 0 .72.127.988.36.14.116.268.279.465.279.314 0 .5-.21.5-.442a.533.533 0 00-.163-.383c-.348-.419-1.07-.733-1.801-.733zM62.784 8.845V4.707a.538.538 0 00-.546-.546.538.538 0 00-.546.546v4.138c0 .302.22.546.546.546a.531.531 0 00.546-.546zM61.6 2.73c0 .349.29.64.639.64.349 0 .64-.291.64-.64 0-.348-.291-.639-.64-.639-.349 0-.64.29-.64.64zM69.525 6.776c0-1.465-1.046-2.662-2.661-2.662-1.616 0-2.662 1.197-2.662 2.662 0 1.464 1.046 2.661 2.662 2.661 1.615 0 2.661-1.197 2.661-2.661zm-1.092 0c0 .941-.547 1.732-1.57 1.732-1.022 0-1.568-.79-1.568-1.732s.546-1.732 1.569-1.732c1.022 0 1.569.79 1.569 1.732zM79.625 6.776c0-1.546-1.092-2.662-2.429-2.662-.779 0-1.476.395-1.825 1v-.395c0-.302-.197-.558-.534-.558s-.523.244-.523.546v6.311c0 .302.22.546.546.546a.531.531 0 00.546-.546v-2.58a2.09 2.09 0 001.79 1c1.337 0 2.43-1.058 2.43-2.662zm-1.092 0c0 1.046-.616 1.755-1.558 1.755-.941 0-1.569-.825-1.569-1.755 0-.93.628-1.755 1.57-1.755.94 0 1.557.709 1.557 1.755zM85.39 8.845V6.31c0-1.418-.86-2.197-2.394-2.197-.523 0-1.151.093-1.558.256-.29.116-.511.256-.511.523 0 .256.174.453.465.453.128 0 .255-.058.36-.093a3.18 3.18 0 011.15-.209c1.012 0 1.395.419 1.395 1.337v.5a2.28 2.28 0 00-1.569-.593c-1.127 0-1.976.546-1.976 1.58 0 .93.802 1.57 1.93 1.57.744 0 1.29-.256 1.639-.698v.105c0 .302.209.546.534.546.36 0 .535-.244.535-.546zm-1.093-.977c0 .489-.58.826-1.267.826-.697 0-1.185-.303-1.185-.826 0-.523.476-.825 1.209-.825.616 0 1.243.302 1.243.825zM90.132 4.649a.488.488 0 00-.512-.511c-.732 0-1.278.418-1.476 1.08v-.5c0-.336-.22-.557-.534-.557a.537.537 0 00-.558.558v4.126c0 .302.197.546.546.546a.538.538 0 00.546-.546V6.939c0-1.174.558-1.779 1.476-1.779.29 0 .512-.22.512-.511zM95.455 8.845V6.31c0-1.418-.86-2.197-2.394-2.197-.523 0-1.151.093-1.558.256-.29.116-.511.256-.511.523 0 .256.174.453.465.453.128 0 .255-.058.36-.093a3.18 3.18 0 011.15-.209c1.012 0 1.395.419 1.395 1.337v.5a2.28 2.28 0 00-1.569-.593c-1.127 0-1.976.546-1.976 1.58 0 .93.802 1.57 1.93 1.57.744 0 1.29-.256 1.639-.698v.105c0 .302.209.546.534.546.36 0 .535-.244.535-.546zm-1.093-.977c0 .489-.58.826-1.267.826-.697 0-1.185-.303-1.185-.826 0-.523.476-.825 1.209-.825.616 0 1.243.302 1.243.825zM102.893 4.114c-1.708 0-2.72 1.174-2.72 2.662s1.012 2.661 2.72 2.661c.732 0 1.453-.313 1.802-.732a.533.533 0 00.162-.383c0-.233-.186-.442-.5-.442-.197 0-.325.163-.464.279-.268.232-.605.36-.988.36-1.081 0-1.639-.813-1.639-1.743 0-.93.558-1.743 1.639-1.743.383 0 .72.127.988.36.14.116.267.279.465.279.313 0 .5-.21.5-.442a.533.533 0 00-.163-.383c-.35-.419-1.07-.733-1.802-.733zM106.229 4.707v2.371c0 1.371.767 2.36 2.103 2.36.768 0 1.349-.35 1.674-.977v.372c0 .384.244.558.546.558.314 0 .547-.21.547-.558V4.707a.531.531 0 00-.547-.546.538.538 0 00-.546.546V7.02c0 .79-.5 1.43-1.371 1.43-.872 0-1.314-.605-1.314-1.418V4.707a.531.531 0 00-.546-.546c-.349 0-.546.256-.546.546zM117.189 8.845V6.31c0-1.418-.86-2.197-2.395-2.197-.523 0-1.15.093-1.557.256-.29.116-.511.256-.511.523 0 .256.174.453.465.453.127 0 .255-.058.36-.093a3.18 3.18 0 011.15-.209c1.012 0 1.395.419 1.395 1.337v.5a2.28 2.28 0 00-1.569-.593c-1.127 0-1.976.546-1.976 1.58 0 .93.802 1.57 1.93 1.57.744 0 1.29-.256 1.638-.698v.105c0 .302.21.546.535.546.36 0 .535-.244.535-.546zm-1.093-.977c0 .489-.58.826-1.267.826-.697 0-1.185-.303-1.185-.826 0-.523.476-.825 1.209-.825.616 0 1.243.302 1.243.825zM119.943 8.845V2.01a.531.531 0 00-.546-.547.531.531 0 00-.546.547v6.834c0 .302.22.546.546.546a.531.531 0 00.546-.546zM121.361 6.776c0 1.604 1.093 2.661 2.43 2.661a2.09 2.09 0 001.79-1v2.581c0 .302.22.546.545.546a.531.531 0 00.547-.546v-6.31c0-.303-.186-.547-.523-.547s-.535.256-.535.558v.395c-.349-.605-1.046-1-1.825-1-1.336 0-2.429 1.116-2.429 2.662zm1.093 0c0-1.046.616-1.755 1.557-1.755s1.57.825 1.57 1.755c0 .93-.629 1.755-1.57 1.755-.941 0-1.557-.71-1.557-1.755zM128.358 4.707v2.371c0 1.371.767 2.36 2.103 2.36.768 0 1.349-.35 1.674-.977v.372c0 .384.244.558.546.558.314 0 .547-.21.547-.558V4.707a.531.531 0 00-.547-.546.538.538 0 00-.546.546V7.02c0 .79-.5 1.43-1.371 1.43-.872 0-1.314-.605-1.314-1.418V4.707a.531.531 0 00-.546-.546c-.349 0-.546.256-.546.546zM136.063 8.845V4.707a.538.538 0 00-.546-.546.538.538 0 00-.546.546v4.138c0 .302.22.546.546.546a.531.531 0 00.546-.546zm-1.185-6.114c0 .349.29.64.64.64.348 0 .638-.291.638-.64 0-.348-.29-.639-.639-.639-.348 0-.639.29-.639.64zM140.085 4.114c-1.5 0-2.604 1.14-2.604 2.662 0 1.453.919 2.661 2.65 2.661.837 0 1.627-.337 2.07-.848a.485.485 0 00.139-.314.44.44 0 00-.454-.453c-.14 0-.267.081-.36.174-.384.36-.744.57-1.348.57-.965 0-1.511-.605-1.57-1.407h3.476c.314 0 .418-.186.418-.372 0-1.487-.953-2.673-2.417-2.673zm1.406 2.162h-2.859c.105-.72.65-1.29 1.453-1.29.79 0 1.313.593 1.406 1.29zM147.012 4.649a.488.488 0 00-.512-.511c-.732 0-1.278.418-1.476 1.08v-.5c0-.336-.22-.557-.534-.557a.537.537 0 00-.558.558v4.126c0 .302.197.546.546.546a.538.538 0 00.546-.546V6.939c0-1.174.558-1.779 1.476-1.779.291 0 .512-.22.512-.511zM152.486 8.845V4.707a.538.538 0 00-.546-.546.538.538 0 00-.547.546v4.138c0 .302.221.546.547.546a.531.531 0 00.546-.546zM151.3 2.73c0 .349.291.64.64.64.348 0 .639-.291.639-.64 0-.348-.29-.639-.64-.639-.348 0-.639.29-.639.64zM158.239 7.95c0-.942-.65-1.279-1.906-1.639-.837-.244-1.186-.372-1.186-.767 0-.407.396-.558.977-.558.418 0 .778.093 1.104.267.174.093.325.163.476.163.303 0 .419-.198.419-.407 0-.232-.221-.418-.535-.57a3.435 3.435 0 00-1.441-.325c-1.255 0-2.057.57-2.057 1.442 0 .836.523 1.324 1.952 1.708.814.22 1.14.372 1.14.767 0 .36-.338.593-.965.593-.558 0-1-.221-1.314-.453-.127-.093-.244-.163-.43-.163-.232 0-.418.15-.418.383 0 .151.07.326.232.454.465.36 1.116.592 1.848.592 1.383 0 2.104-.627 2.104-1.487zM160.691 8.845V2.01a.531.531 0 00-.546-.547.531.531 0 00-.546.547v6.834c0 .302.22.546.546.546a.531.531 0 00.546-.546zM166.781 8.845V6.31c0-1.418-.86-2.197-2.394-2.197-.523 0-1.15.093-1.557.256-.29.116-.512.256-.512.523 0 .256.175.453.465.453.128 0 .256-.058.36-.093a3.18 3.18 0 011.151-.209c1.011 0 1.395.419 1.395 1.337v.5a2.28 2.28 0 00-1.569-.593c-1.127 0-1.976.546-1.976 1.58 0 .93.802 1.57 1.93 1.57.743 0 1.29-.256 1.638-.698v.105c0 .302.21.546.535.546.36 0 .534-.244.534-.546zm-1.092-.977c0 .489-.581.826-1.267.826-.697 0-1.185-.303-1.185-.826 0-.523.476-.825 1.208-.825.616 0 1.244.302 1.244.825z" stroke-width=".01162"/></g></svg>