<svg width="564.751" height="48" viewBox="0 0 564.751 48" xmlns="http://www.w3.org/2000/svg"><g fill="#fff" stroke="#fff"><path d="M5.979 37.995c4.722 0 8.578-2.6 8.578-8.795V6.628h-3.77v22.399c0 4.159-1.949 5.892-5.025 5.892-1.863 0-2.99-.39-4.116-.867v3.12c.823.433 1.993.823 4.333.823zM22.095 37.605H40.94v-3.076H25.864V23.308h11.524v-3.076H25.864V9.704h14.297V6.628H22.095zM46.616 37.605h3.77V24.13h4.765l9.228 13.474h4.202L59.093 23.87c4.246-.823 7.668-3.336 7.668-8.448v-.173c0-6.195-4.895-8.622-10.83-8.622h-9.315zm3.77-16.463V9.662h5.804c4.203 0 6.802 1.385 6.802 5.588v.173c0 3.813-2.383 5.719-6.802 5.719zM73.823 37.605h18.846v-3.076H77.592V23.308h11.524v-3.076H77.592V9.704H91.89V6.628H73.823zM95.658 37.605h22.485v-3.206h-16.81l17.07-27.207v-.564H97.218v3.076h15.986L95.658 36.998zM139.371 34.529V9.66h4.203c8.534 0 12 5.026 12 12.174v.347c0 7.581-3.986 12.347-11.957 12.347zm-3.769 3.076h8.102c10.83 0 15.77-6.802 15.77-15.38v-.39c0-8.621-5.026-15.207-15.684-15.207h-8.188zM165.755 37.605h18.846v-3.076h-15.077V23.308h11.524v-3.076h-11.524V9.704h14.297V6.628h-18.066zM201.757 37.605h17.936v-3.076h-14.167v-27.9h-3.77zM222.595 37.605h3.553l2.99-8.925h12.78l3.032 8.925h3.726L238.192 6.628h-4.939zM235.55 9.748l5.372 15.943h-10.744zM265.616 37.605h3.769V23.74h11.177v-3.076h-11.177V9.705h14.34V6.627h-18.11zM289.27 37.605h3.77V24.13h4.765l9.228 13.474h4.202l-9.488-13.734c4.246-.823 7.668-3.336 7.668-8.448v-.173c0-6.195-4.895-8.622-10.83-8.622h-9.315zm3.77-16.463V9.662h5.805c4.202 0 6.801 1.385 6.801 5.588v.173c0 3.813-2.382 5.719-6.801 5.719zM329.864 34.875c-6.455 0-11.437-5.112-11.437-12.607v-.346c0-7.365 4.159-12.65 11.35-12.65 7.149 0 11.221 5.631 11.221 12.563v.347c0 7.495-4.246 12.693-11.134 12.693zm0 3.12c9.011 0 15.033-7.019 15.033-15.77v-.347c0-8.708-6.022-15.64-15.12-15.64-9.097 0-15.25 6.932-15.25 15.727v.347c0 8.664 6.196 15.683 15.337 15.683zM351.18 37.605h3.595V11.047l15.64 26.558h4.332V6.628h-3.596v25.605L356.075 6.628h-4.896zM388.914 37.605h3.769v-27.9h9.011V6.627h-21.791v3.076h9.01zM406.85 37.605h18.845v-3.076H410.62V23.308h11.524v-3.076h-11.524V9.704h14.297V6.628H406.85zM431.37 37.605h3.77V24.13h4.765l9.228 13.474h4.203l-9.488-13.734c4.246-.823 7.668-3.336 7.668-8.448v-.173c0-6.195-4.895-8.622-10.83-8.622h-9.315zm3.77-16.463V9.662h5.805c4.203 0 6.802 1.385 6.802 5.588v.173c0 3.813-2.383 5.719-6.802 5.719zM456.238 37.605h3.553l2.99-8.925h12.78l3.032 8.925h3.726L471.835 6.628h-4.94zm12.954-27.857l5.372 15.943H463.82z" stroke-width=".04332"/></g></svg>