<svg width="31.746" height="13" viewBox="0 0 31.746 13" xmlns="http://www.w3.org/2000/svg"><g fill="#47A01A" stroke="#47A01A"><path d="M1.527 4.047V1.811a.31.31 0 00-.32-.32.31.31 0 00-.32.32v2.236c0 .166.119.32.32.32a.31.31 0 00.32-.32zM3.752 3.397c0 .78.497 1.349 1.337 1.727-1.065.284-1.894 1.006-1.894 2.154 0 1.338 1.148 2.332 3.077 2.332 1.93 0 3.077-.994 3.077-2.332 0-1.148-.828-1.87-1.893-2.154.84-.378 1.337-.946 1.337-1.727 0-1.208-1.089-1.953-2.52-1.953-1.433 0-2.521.745-2.521 1.953zm2.52 2.07c1.267 0 2.38.628 2.38 1.8 0 1.076-.9 1.763-2.38 1.763-1.479 0-2.378-.687-2.378-1.764 0-1.171 1.112-1.798 2.378-1.798zm0-.567c-1.065 0-1.846-.628-1.846-1.468 0-.888.734-1.42 1.846-1.42 1.113 0 1.847.532 1.847 1.42 0 .84-.782 1.468-1.847 1.468zM17.515 5.527c0-2.213-1.29-4.083-3.337-4.083s-3.337 1.87-3.337 4.083 1.29 4.083 3.337 4.083 3.337-1.87 3.337-4.083zm-.71 0c0 1.881-.958 3.444-2.627 3.444-1.669 0-2.627-1.563-2.627-3.444 0-1.882.958-3.444 2.627-3.444 1.669 0 2.627 1.562 2.627 3.444z" stroke-width=".01183"/></g></svg>