<svg width="454" height="54" viewBox="0 0 454 54" xmlns="http://www.w3.org/2000/svg"><g fill="#fff" stroke="#fff"><path d="M15.694 42.878c6.943 0 12.077-4.449 12.077-10.316 0-6.6-4.107-8.947-11.881-10.17-7.138-1.075-8.41-2.835-8.41-6.258 0-3.275 2.494-5.671 7.285-5.671 4.84 0 7.383 1.809 8.214 6.21h3.814c-.685-6.21-5.036-9.633-12.028-9.633-6.6 0-11.245 4.107-11.245 9.485 0 6.21 4.352 8.508 11.685 9.632 6.65 1.076 8.459 2.738 8.459 6.698 0 3.96-3.472 6.6-7.97 6.6-7.04 0-8.702-3.52-9.24-7.675H2.347c.635 5.964 4.009 11.098 13.347 11.098zM31.193 42.438h4.01l3.373-10.072h14.423l3.422 10.072h4.205L48.794 7.48H43.22zm14.619-31.437l6.062 17.992H39.75zM66.786 42.438h4.058v-29.97l17.65 29.97h4.89V7.48h-4.059v28.896L72.311 7.48h-5.525zM126.434 42.878c6.943 0 12.076-4.449 12.076-10.316 0-6.6-4.106-8.947-11.88-10.17-7.138-1.075-8.41-2.835-8.41-6.258 0-3.275 2.494-5.671 7.285-5.671 4.84 0 7.383 1.809 8.214 6.21h3.814c-.685-6.21-5.036-9.633-12.028-9.633-6.6 0-11.245 4.107-11.245 9.485 0 6.21 4.352 8.508 11.685 9.632 6.65 1.076 8.459 2.738 8.459 6.698 0 3.96-3.472 6.6-7.97 6.6-7.04 0-8.703-3.52-9.24-7.675h-4.107c.635 5.964 4.009 11.098 13.347 11.098zM145.795 42.438h21.268v-3.471H150.05V26.304h13.005v-3.472H150.05v-11.88h16.134V7.48h-20.388zM173.468 42.438h11.979c6.991 0 11.49-3.178 11.49-9.778v-.196c0-4.547-1.908-7.138-6.992-8.36 4.009-1.37 5.28-4.205 5.28-7.383v-.196c0-6.893-4.743-9.045-11.245-9.045h-10.512zm4.156-3.325V26.06h7.138c5.623 0 8.018 2.054 8.018 6.356v.196c0 4.253-2.346 6.502-7.431 6.502zm0-16.378v-11.93h6.258c4.89 0 7.187 1.614 7.187 5.574v.195c0 4.303-1.956 6.16-7.09 6.16zM200.75 42.438h4.009l3.373-10.072h14.423l3.423 10.072h4.205L218.35 7.48h-5.574zm14.618-31.437l6.063 17.992h-12.125zM246.904 42.878c6.942 0 12.076-4.449 12.076-10.316 0-6.6-4.107-8.947-11.88-10.17-7.139-1.075-8.41-2.835-8.41-6.258 0-3.275 2.493-5.671 7.285-5.671 4.84 0 7.382 1.809 8.213 6.21h3.814c-.684-6.21-5.036-9.633-12.027-9.633-6.6 0-11.245 4.107-11.245 9.485 0 6.21 4.35 8.508 11.685 9.632 6.649 1.076 8.458 2.738 8.458 6.698 0 3.96-3.471 6.6-7.97 6.6-7.04 0-8.702-3.52-9.24-7.675h-4.107c.636 5.964 4.01 11.098 13.348 11.098zM272.23 42.438h4.253V10.952h10.17V7.48H262.06v3.472h10.17zM292.715 42.438h4.254V7.48h-4.254zM303.374 42.438h4.009l3.373-10.072h14.423l3.423 10.072h4.204L320.975 7.48H315.4zm14.618-31.437l6.063 17.992H311.93zm-1.71-6.258h3.03l4.792-6.21h-5.085zM338.967 42.438h4.058v-29.97l17.65 29.97h4.889V7.48h-4.058v28.896L344.492 7.48h-5.525z" stroke-width=".04889"/></g></svg>