<svg width="83.848" height="100" viewBox="0 0 83.848 100" xmlns="http://www.w3.org/2000/svg"><g fill="#fff" stroke="#fff"><path d="M1.676 5.395c-.02-.126-.078-.223-.223-.223-.145 0-.213.097-.233.223L.998 7.08v2.102c0 .252.184.455.455.455a.443.443 0 00.455-.455V7.08zM.872 4.01c0 .32.261.58.58.58.32 0 .582-.26.582-.58a.583.583 0 00-.581-.581.583.583 0 00-.581.58zM8.542 6.034c0-1.104-.862-1.52-2.411-2.005-1.114-.349-1.589-.552-1.589-1.123 0-.63.61-.901 1.56-.901.639 0 1.181.203 1.656.474a.37.37 0 00.184.049c.271 0 .397-.194.397-.417 0-.3-.455-.532-.784-.658a4.165 4.165 0 00-1.463-.271c-1.453 0-2.48.58-2.48 1.743 0 .91.543 1.443 2.267 1.956 1.162.35 1.734.552 1.734 1.201 0 .552-.504.969-1.53.969-.795 0-1.289-.262-1.821-.6-.117-.068-.214-.117-.33-.117-.223 0-.397.136-.397.378 0 .165.107.32.252.436.562.436 1.433.716 2.286.716 1.617 0 2.47-.794 2.47-1.83zM13.937 5.647c0-1.22-.871-2.218-2.218-2.218-1.346 0-2.218.997-2.218 2.218 0 1.22.872 2.217 2.218 2.217 1.347 0 2.218-.997 2.218-2.217zm-.91 0c0 .784-.455 1.443-1.308 1.443-.852 0-1.307-.659-1.307-1.443 0-.785.455-1.444 1.307-1.444.853 0 1.308.659 1.308 1.444zM16.03 7.37V1.677a.443.443 0 00-.456-.456.443.443 0 00-.455.456V7.37c0 .251.184.455.455.455a.443.443 0 00.455-.455zM21.647 5.647c0-1.22-.872-2.218-2.218-2.218s-2.218.997-2.218 2.218c0 1.22.872 2.217 2.218 2.217s2.218-.997 2.218-2.217zm-.91 0c0 .784-.456 1.443-1.308 1.443-.853 0-1.308-.659-1.308-1.443 0-.785.455-1.444 1.308-1.444.852 0 1.307.659 1.307 1.444zM29.695 7.37V5.396c0-1.143-.639-1.966-1.753-1.966-.639 0-1.123.29-1.394.813V1.685c0-.32-.204-.465-.456-.465-.261 0-.455.175-.455.465v5.686c0 .251.184.455.455.455a.449.449 0 00.456-.455V5.443c0-.658.416-1.191 1.142-1.191.727 0 1.095.504 1.095 1.181v1.938c0 .251.184.455.455.455.29 0 .455-.213.455-.455zM34.722 7.37V5.26c0-1.182-.717-1.831-1.995-1.831-.436 0-.96.077-1.298.213-.242.097-.426.213-.426.436 0 .213.145.377.387.377.107 0 .213-.048.3-.077a2.65 2.65 0 01.96-.175c.842 0 1.162.35 1.162 1.114v.417a1.9 1.9 0 00-1.308-.494c-.94 0-1.647.455-1.647 1.317 0 .775.669 1.307 1.608 1.307.62 0 1.075-.213 1.366-.58v.087c0 .251.174.455.445.455.3 0 .446-.204.446-.455zm-.91-.813c0 .407-.485.688-1.056.688-.581 0-.988-.252-.988-.688 0-.436.397-.688 1.007-.688.514 0 1.037.252 1.037.688zM39.448 6.625c0-.785-.542-1.066-1.588-1.366-.697-.203-.988-.31-.988-.64 0-.338.33-.464.814-.464.348 0 .649.077.92.223.145.077.27.135.397.135.252 0 .349-.164.349-.339 0-.193-.184-.348-.446-.474a2.863 2.863 0 00-1.201-.271c-1.046 0-1.714.474-1.714 1.2 0 .698.436 1.105 1.627 1.424.678.184.949.31.949.64 0 .3-.28.494-.804.494-.465 0-.833-.185-1.094-.378-.107-.078-.204-.136-.359-.136-.193 0-.348.126-.348.32 0 .126.058.271.193.378.388.3.93.493 1.54.493 1.153 0 1.753-.523 1.753-1.24zM41.976 7.37V4.3h.833a.372.372 0 00.378-.377.372.372 0 00-.378-.378h-.833V2.276a.443.443 0 00-.455-.455.443.443 0 00-.455.455v1.269h-.736a.372.372 0 00-.378.378c0 .213.165.377.378.377h.736v3.07c0 .252.184.456.455.456a.443.443 0 00.455-.455zM47.536 7.37V5.26c0-1.182-.717-1.831-1.996-1.831-.435 0-.958.077-1.297.213-.243.097-.427.213-.427.436 0 .213.146.377.388.377.106 0 .213-.048.3-.077a2.65 2.65 0 01.959-.175c.843 0 1.162.35 1.162 1.114v.417a1.9 1.9 0 00-1.307-.494c-.94 0-1.647.455-1.647 1.317 0 .775.668 1.307 1.608 1.307.62 0 1.075-.213 1.366-.58v.087c0 .251.174.455.445.455.3 0 .446-.204.446-.455zm-.91-.813c0 .407-.485.688-1.056.688-.582 0-.988-.252-.988-.688 0-.436.397-.688 1.007-.688.513 0 1.036.252 1.036.688zM53.628 3.429c-1.25 0-2.17.949-2.17 2.218 0 1.21.765 2.217 2.208 2.217.698 0 1.356-.28 1.724-.707a.404.404 0 00.117-.261.366.366 0 00-.378-.378.444.444 0 00-.3.146c-.32.3-.62.474-1.124.474-.804 0-1.259-.504-1.307-1.172h2.896c.261 0 .348-.155.348-.31 0-1.24-.794-2.227-2.014-2.227zM54.8 5.23h-2.383c.087-.6.542-1.075 1.21-1.075.66 0 1.095.494 1.173 1.075zM57.744 7.37V1.677a.443.443 0 00-.455-.456.443.443 0 00-.455.456V7.37c0 .251.184.455.455.455a.443.443 0 00.455-.455zM64.146 7.37V1.686c0-.3-.184-.465-.446-.465a.586.586 0 00-.213.04l-1.636.503c-.204.058-.33.174-.33.397 0 .261.233.416.455.416.04 0 .078-.01.117-.02l1.143-.348v5.163c0 .251.184.455.455.455a.443.443 0 00.455-.455zM70.664 5.724c0-1.21-.842-2.102-2.382-2.102-.494 0-.96.107-1.356.368l.29-1.869h2.5a.42.42 0 00.425-.407.415.415 0 00-.426-.416h-2.838c-.242 0-.397.145-.436.368l-.455 2.867c-.039.242.107.436.407.436a.48.48 0 00.252-.078c.523-.31.968-.474 1.588-.474.988 0 1.52.532 1.52 1.307 0 .794-.648 1.366-1.636 1.366-.755 0-1.24-.213-1.83-.64a.398.398 0 00-.252-.087.394.394 0 00-.407.417c0 .106.068.232.174.32.61.532 1.443.764 2.315.764 1.646 0 2.547-1.007 2.547-2.14z" stroke-width=".00969"/></g><g fill="#fff" stroke="#fff"><path d="M.455 16.3c0 1.289.91 2.218 2.024 2.218.65 0 1.23-.329 1.521-.833v.33c0 .252.165.465.446.465.28 0 .435-.204.435-.456V12.33a.443.443 0 00-.455-.455.443.443 0 00-.455.455v2.586a1.742 1.742 0 00-1.492-.833c-1.113 0-2.024.882-2.024 2.218zm.91 0c0-.871.514-1.462 1.298-1.462.785 0 1.308.688 1.308 1.462 0 .775-.523 1.463-1.308 1.463-.784 0-1.297-.59-1.297-1.463zM8.233 14.082c-1.25 0-2.17.95-2.17 2.218 0 1.211.765 2.218 2.208 2.218.698 0 1.356-.28 1.724-.707a.404.404 0 00.116-.261.366.366 0 00-.377-.378.444.444 0 00-.3.145c-.32.3-.62.475-1.124.475-.804 0-1.26-.504-1.308-1.172h2.896c.262 0 .35-.155.35-.31 0-1.24-.795-2.228-2.015-2.228zm1.171 1.802H7.022c.087-.6.542-1.075 1.21-1.075.66 0 1.095.494 1.172 1.075zM13.976 16.3c0 1.289.91 2.218 2.024 2.218.65 0 1.23-.329 1.52-.833v.33c0 .252.165.465.446.465s.436-.204.436-.456V12.33a.443.443 0 00-.455-.455.443.443 0 00-.455.455v2.586A1.742 1.742 0 0016 14.082c-1.114 0-2.024.882-2.024 2.218zm.91 0c0-.871.514-1.462 1.298-1.462.785 0 1.308.688 1.308 1.462 0 .775-.523 1.463-1.308 1.463-.784 0-1.298-.59-1.298-1.463zM20.765 18.024v-3.448a.449.449 0 00-.455-.455.449.449 0 00-.455.455v3.448c0 .252.184.456.455.456a.443.443 0 00.455-.456zm-.988-5.094c0 .29.243.533.533.533.29 0 .533-.243.533-.533a.537.537 0 00-.533-.533.537.537 0 00-.533.533zM24.223 14.082c-1.424 0-2.266.979-2.266 2.218 0 1.24.842 2.218 2.266 2.218.61 0 1.21-.261 1.501-.61a.444.444 0 00.136-.32c0-.193-.155-.367-.417-.367-.164 0-.27.135-.387.232a1.23 1.23 0 01-.823.3c-.901 0-1.366-.678-1.366-1.453 0-.774.465-1.452 1.366-1.452.32 0 .6.106.823.3.116.097.223.232.387.232.262 0 .417-.174.417-.368a.444.444 0 00-.136-.32c-.29-.348-.89-.61-1.501-.61zM27.98 18.024v-3.448a.449.449 0 00-.454-.455.449.449 0 00-.455.455v3.448c0 .252.184.456.455.456a.443.443 0 00.455-.456zm-.987-5.094c0 .29.242.533.533.533.29 0 .532-.243.532-.533a.537.537 0 00-.532-.533.537.537 0 00-.533.533zM31.332 14.082c-1.25 0-2.17.95-2.17 2.218 0 1.211.766 2.218 2.209 2.218.697 0 1.356-.28 1.724-.707a.404.404 0 00.116-.261.366.366 0 00-.378-.378.444.444 0 00-.3.145c-.32.3-.62.475-1.123.475-.804 0-1.26-.504-1.308-1.172h2.896c.261 0 .349-.155.349-.31 0-1.24-.795-2.228-2.015-2.228zm1.172 1.802h-2.383c.088-.6.543-1.075 1.211-1.075.659 0 1.095.494 1.172 1.075zM41.647 18.024V16.02c0-1.134-.562-1.938-1.734-1.938-.687 0-1.24.281-1.617.862-.262-.513-.785-.862-1.482-.862-.571 0-1.104.3-1.366.814v-.31c0-.252-.145-.465-.455-.465-.28 0-.455.194-.455.465v3.438c0 .252.194.456.455.456a.443.443 0 00.455-.456v-1.927c0-.64.388-1.191 1.124-1.191.717 0 1.065.513 1.065 1.181v1.937c0 .252.184.456.455.456.281 0 .456-.204.456-.456v-1.927c0-.64.435-1.191 1.152-1.191.717 0 1.037.513 1.037 1.181v1.937c0 .252.193.456.455.456a.443.443 0 00.455-.456zM47.478 16.3c0-1.336-.91-2.218-2.025-2.218-.649 0-1.181.34-1.491.833V12.33a.443.443 0 00-.455-.455.443.443 0 00-.456.455v5.695c0 .252.155.456.436.456s.446-.213.446-.465v-.33c.29.504.871.833 1.52.833 1.114 0 2.025-.93 2.025-2.218zm-.91 0c0 .872-.514 1.463-1.299 1.463-.784 0-1.307-.688-1.307-1.463 0-.774.523-1.462 1.307-1.462.785 0 1.298.59 1.298 1.462zM51.226 14.528a.407.407 0 00-.426-.426c-.61 0-1.066.349-1.23.9v-.416c0-.28-.184-.465-.446-.465a.448.448 0 00-.465.465v3.438c0 .252.165.456.455.456a.449.449 0 00.456-.456v-1.588c0-.978.464-1.482 1.23-1.482a.418.418 0 00.426-.426zM53.821 14.082c-1.249 0-2.17.95-2.17 2.218 0 1.211.766 2.218 2.21 2.218.696 0 1.355-.28 1.723-.707a.404.404 0 00.116-.261.366.366 0 00-.377-.378.444.444 0 00-.3.145c-.32.3-.62.475-1.124.475-.804 0-1.26-.504-1.308-1.172h2.896c.262 0 .349-.155.349-.31 0-1.24-.794-2.228-2.015-2.228zm1.172 1.802h-2.382c.087-.6.542-1.075 1.21-1.075.659 0 1.095.494 1.172 1.075zM58.209 14.828V12.33a.443.443 0 00-.455-.455.443.443 0 00-.456.455v2.5l.223 1.684c.02.126.087.223.233.223.145 0 .203-.097.222-.223zm-1.036 3.07c0 .32.261.582.58.582.32 0 .582-.262.582-.581a.583.583 0 00-.581-.582.583.583 0 00-.581.582z" stroke-width=".00969"/></g></svg>