<svg width="435.684" height="59" viewBox="0 0 435.684 59" xmlns="http://www.w3.org/2000/svg"><g fill="#fff" stroke="#fff"><path d="M21.507 47.595c9.486 0 16.332-4.905 17.302-14.446h-8.57c-.701 4.96-4.043 7.385-8.84 7.385-6.36 0-10.026-4.636-10.026-12.613v-.431c0-7.978 3.881-12.721 9.972-12.721 4.851 0 7.438 2.48 8.085 7.115h8.948C37.46 12.397 30.562 7.87 21.29 7.87c-10.942 0-19.135 7.977-19.135 19.673v.432c0 11.858 6.738 19.62 19.35 19.62zM40.641 47.002h8.193l2.642-8.57h13.96l2.641 8.57h9.11L64.68 8.462H53.308zm17.842-31.425l5.066 16.656H53.362zM82.469 47.002h7.762V19.566l16.062 27.436h8.732V8.462h-7.762V33.85L92.603 8.462H82.468zM120.307 47.002h8.193l2.641-8.57h13.96l2.642 8.57h9.11l-12.506-38.54h-11.373zm17.842-31.425l5.066 16.656h-10.187zM162.135 47.002h8.678V32.125h3.773l9.217 14.877h9.27l-10.186-16.386c4.527-1.348 7.923-4.42 7.923-10.241v-.216c0-7.977-5.767-11.697-14.877-11.697h-13.798zm8.678-20.806v-11.05h4.905c4.204 0 6.576 1.348 6.576 5.283v.215c0 3.72-2.21 5.552-6.576 5.552zM198.572 47.002h8.786V8.462h-8.786zM212.856 47.002h8.193l2.64-8.57h13.961l2.641 8.57h9.11l-12.505-38.54h-11.374zm17.84-31.425l5.068 16.656h-10.188zM267.35 47.595c9.109 0 14.715-5.444 14.715-12.29 0-7.977-4.798-10.51-14.122-11.696-5.93-.863-7.17-2.156-7.17-4.905 0-2.588 1.941-4.366 5.768-4.366s5.875 1.617 6.414 5.12h8.032c-.701-7.654-5.768-11.535-14.446-11.535-8.516 0-14.014 4.905-14.014 11.481 0 7.439 4.042 10.403 13.906 11.697 5.66.862 7.277 1.94 7.277 5.013 0 3.018-2.533 5.12-6.36 5.12-5.714 0-7.17-2.856-7.546-6.306h-8.355c.485 7.708 5.336 12.667 15.9 12.667z" stroke-width=".0539"/></g></svg>