<svg width="91.892" height="37" viewBox="0 0 91.892 37" xmlns="http://www.w3.org/2000/svg"><g fill="#fff" stroke="#fff"><path d="M3.98 5.763L1.645.97C1.561.804 1.45.702 1.247.702c-.24 0-.416.148-.416.416v5.458c0 .231.157.425.416.425.268 0 .425-.194.425-.425v-3.74l1.92 3.907c.075.157.186.258.389.258s.314-.101.388-.258L6.29 2.836v3.74c0 .231.157.425.425.425.258 0 .415-.194.415-.425V1.118c0-.268-.175-.416-.415-.416-.203 0-.314.102-.397.268zM9.523 6.567V3.279a.428.428 0 00-.434-.434.428.428 0 00-.435.434v3.288c0 .24.176.434.435.434a.422.422 0 00.434-.434zM8.58 1.709c0 .277.23.508.508.508.277 0 .508-.231.508-.508a.513.513 0 00-.508-.508.513.513 0 00-.508.508zM14.095 5.856c0-.748-.518-1.016-1.515-1.302-.665-.194-.942-.296-.942-.61 0-.323.314-.443.776-.443.332 0 .618.073.877.212.139.074.259.13.379.13.24 0 .332-.158.332-.324 0-.185-.175-.332-.425-.453a2.73 2.73 0 00-1.145-.258c-.997 0-1.635.452-1.635 1.145 0 .665.416 1.053 1.552 1.358.647.175.905.295.905.61 0 .286-.268.47-.766.47-.444 0-.795-.175-1.044-.36a.536.536 0 00-.342-.129c-.185 0-.332.12-.332.305 0 .12.055.258.184.36.37.286.887.471 1.469.471 1.099 0 1.672-.499 1.672-1.182zM21.955 6.567V4.655c0-1.08-.536-1.847-1.654-1.847-.655 0-1.182.268-1.542.822-.25-.49-.748-.822-1.413-.822-.545 0-1.053.286-1.302.776v-.296c0-.24-.139-.443-.435-.443-.267 0-.434.185-.434.443v3.279c0 .24.185.434.434.434a.422.422 0 00.435-.434V4.729c0-.61.369-1.136 1.071-1.136.683 0 1.016.49 1.016 1.127v1.847c0 .24.175.434.434.434A.417.417 0 0019 6.567V4.729c0-.61.416-1.136 1.1-1.136.683 0 .988.49.988 1.127v1.847c0 .24.184.434.434.434a.422.422 0 00.434-.434zM27.266 4.923c0-1.164-.832-2.115-2.115-2.115-1.284 0-2.116.951-2.116 2.115 0 1.164.832 2.115 2.116 2.115 1.283 0 2.115-.951 2.115-2.115zm-.869 0c0 .748-.434 1.376-1.246 1.376-.813 0-1.247-.628-1.247-1.376 0-.748.434-1.376 1.247-1.376.812 0 1.246.628 1.246 1.376zM35.292 4.923c0-1.228-.868-2.115-1.93-2.115-.62 0-1.173.314-1.45.794v-.314c0-.24-.157-.443-.425-.443s-.416.194-.416.434v5.015c0 .24.176.434.434.434a.422.422 0 00.434-.434v-2.05c.296.47.804.794 1.423.794 1.062 0 1.93-.84 1.93-2.115zm-.868 0c0 .831-.49 1.395-1.238 1.395s-1.247-.656-1.247-1.395.5-1.395 1.247-1.395c.748 0 1.238.564 1.238 1.395zM38.867 3.233a.388.388 0 00-.407-.407c-.582 0-1.016.333-1.173.86v-.398c0-.268-.175-.443-.425-.443a.427.427 0 00-.443.443v3.279c0 .24.157.434.434.434.25 0 .434-.194.434-.434V5.052c0-.933.443-1.413 1.173-1.413.231 0 .407-.175.407-.406zM41.342 2.808c-1.192 0-2.07.905-2.07 2.115 0 1.155.73 2.115 2.107 2.115.665 0 1.293-.268 1.644-.674a.385.385 0 00.11-.25.35.35 0 00-.36-.36.424.424 0 00-.286.139c-.305.286-.59.452-1.071.452-.767 0-1.2-.48-1.247-1.117h2.762c.249 0 .332-.148.332-.296 0-1.182-.757-2.124-1.921-2.124zm1.117 1.718h-2.272c.083-.573.518-1.025 1.155-1.025.628 0 1.044.47 1.117 1.025zM46.311 2.808c-1.358 0-2.161.933-2.161 2.115 0 1.182.803 2.115 2.161 2.115.582 0 1.155-.25 1.432-.582a.423.423 0 00.129-.305c0-.184-.148-.35-.397-.35-.157 0-.259.129-.37.221-.212.185-.48.286-.785.286-.859 0-1.302-.646-1.302-1.385s.443-1.385 1.302-1.385c.305 0 .573.101.785.286.111.092.213.222.37.222.25 0 .397-.167.397-.351a.423.423 0 00-.13-.305c-.276-.333-.85-.582-1.431-.582zM49.895 6.567V3.279a.428.428 0 00-.434-.434.428.428 0 00-.434.434v3.288c0 .24.175.434.434.434a.422.422 0 00.434-.434zm-.942-4.858c0 .277.23.508.508.508.277 0 .508-.231.508-.508a.513.513 0 00-.508-.508.513.513 0 00-.508.508zM55.252 4.923c0-1.164-.831-2.115-2.115-2.115-1.284 0-2.115.951-2.115 2.115 0 1.164.83 2.115 2.115 2.115 1.284 0 2.115-.951 2.115-2.115zm-.868 0c0 .748-.434 1.376-1.247 1.376-.813 0-1.247-.628-1.247-1.376 0-.748.434-1.376 1.247-1.376.813 0 1.247.628 1.247 1.376z" stroke-width=".00924"/></g><g fill="#fff" stroke="#fff"><path d="M4.914 14.16c0-1.23-.868-2.116-1.93-2.116-.62 0-1.174.314-1.45.795v-.315c0-.24-.158-.443-.426-.443-.267 0-.415.194-.415.434v5.016c0 .24.175.434.434.434a.422.422 0 00.434-.434v-2.05c.296.47.804.793 1.422.793 1.063 0 1.93-.84 1.93-2.115zm-.868 0c0 .83-.49 1.394-1.238 1.394s-1.247-.656-1.247-1.395.499-1.394 1.247-1.394c.748 0 1.238.563 1.238 1.394zM9.495 15.803V13.79c0-1.127-.684-1.746-1.903-1.746-.415 0-.914.074-1.237.203-.231.093-.407.204-.407.416 0 .203.139.36.37.36.101 0 .203-.046.286-.074.259-.092.526-.166.914-.166.804 0 1.109.333 1.109 1.062v.397a1.812 1.812 0 00-1.247-.47c-.896 0-1.57.434-1.57 1.256 0 .738.637 1.246 1.533 1.246.591 0 1.025-.203 1.302-.554v.083c0 .24.166.434.425.434.286 0 .425-.193.425-.434zm-.868-.775c0 .387-.462.655-1.007.655-.554 0-.942-.24-.942-.655 0-.416.379-.656.96-.656.49 0 .989.24.989.656zM13.263 12.47a.388.388 0 00-.406-.407c-.582 0-1.016.332-1.173.859v-.398c0-.267-.176-.443-.425-.443a.427.427 0 00-.443.443v3.28c0 .24.157.433.434.433.25 0 .434-.193.434-.434V14.29c0-.933.443-1.414 1.173-1.414.23 0 .406-.175.406-.406zM17.494 15.803V13.79c0-1.127-.684-1.746-1.903-1.746-.416 0-.914.074-1.238.203-.23.093-.406.204-.406.416 0 .203.138.36.37.36.1 0 .203-.046.286-.074.258-.092.526-.166.914-.166.804 0 1.108.333 1.108 1.062v.397a1.812 1.812 0 00-1.246-.47c-.896 0-1.57.434-1.57 1.256 0 .738.637 1.246 1.533 1.246.59 0 1.025-.203 1.302-.554v.083c0 .24.166.434.425.434.286 0 .425-.193.425-.434zm-.869-.775c0 .387-.461.655-1.006.655-.555 0-.942-.24-.942-.655 0-.416.378-.656.96-.656.49 0 .988.24.988.656zM23.405 12.044c-1.358 0-2.161.933-2.161 2.115 0 1.183.803 2.115 2.16 2.115.583 0 1.155-.249 1.433-.581a.423.423 0 00.129-.305c0-.185-.148-.351-.397-.351-.157 0-.259.13-.37.221-.212.185-.48.287-.785.287-.859 0-1.302-.647-1.302-1.386 0-.739.443-1.385 1.302-1.385.305 0 .573.101.785.286.111.093.213.222.37.222.25 0 .397-.166.397-.351a.423.423 0 00-.13-.305c-.277-.332-.85-.582-1.431-.582zM26.056 12.515V14.4c0 1.09.61 1.875 1.672 1.875.61 0 1.07-.277 1.33-.775v.295c0 .305.194.443.434.443.249 0 .434-.166.434-.443v-3.279a.422.422 0 00-.434-.434.428.428 0 00-.434.434v1.838c0 .628-.398 1.136-1.09 1.136-.693 0-1.044-.48-1.044-1.126v-1.848a.422.422 0 00-.434-.434c-.277 0-.434.203-.434.434zM34.766 15.803V13.79c0-1.127-.684-1.746-1.903-1.746-.416 0-.914.074-1.238.203-.23.093-.406.204-.406.416 0 .203.138.36.37.36.1 0 .203-.046.286-.074.258-.092.526-.166.914-.166.804 0 1.108.333 1.108 1.062v.397a1.812 1.812 0 00-1.247-.47c-.895 0-1.57.434-1.57 1.256 0 .738.638 1.246 1.534 1.246.59 0 1.025-.203 1.302-.554v.083c0 .24.166.434.425.434.286 0 .425-.193.425-.434zm-.869-.775c0 .387-.461.655-1.006.655-.555 0-.942-.24-.942-.655 0-.416.378-.656.96-.656.49 0 .988.24.988.656zM36.955 15.803v-5.43a.422.422 0 00-.434-.435.422.422 0 00-.435.434v5.431c0 .24.176.434.435.434a.422.422 0 00.434-.434zM38.081 14.16c0 1.274.869 2.114 1.93 2.114.62 0 1.128-.323 1.423-.794v2.05c0 .24.176.435.434.435a.422.422 0 00.434-.434v-5.016c0-.24-.147-.434-.415-.434s-.425.203-.425.443v.315c-.277-.48-.831-.795-1.45-.795-1.062 0-1.93.887-1.93 2.115zm.869 0c0-.832.49-1.395 1.237-1.395.748 0 1.247.655 1.247 1.394 0 .74-.499 1.395-1.247 1.395-.748 0-1.237-.563-1.237-1.395zM43.642 12.515V14.4c0 1.09.61 1.875 1.672 1.875.61 0 1.07-.277 1.33-.775v.295c0 .305.194.443.434.443.249 0 .434-.166.434-.443v-3.279a.422.422 0 00-.434-.434.428.428 0 00-.434.434v1.838c0 .628-.398 1.136-1.09 1.136-.693 0-1.044-.48-1.044-1.126v-1.848a.422.422 0 00-.434-.434c-.277 0-.434.203-.434.434zM49.765 15.803v-3.288a.428.428 0 00-.434-.434.428.428 0 00-.434.434v3.288c0 .24.176.434.434.434a.422.422 0 00.434-.434zm-.942-4.858c0 .277.231.508.508.508s.508-.23.508-.508a.513.513 0 00-.508-.508.513.513 0 00-.508.508zM52.961 12.044c-1.191 0-2.069.905-2.069 2.115 0 1.155.73 2.115 2.106 2.115.665 0 1.293-.267 1.644-.674a.385.385 0 00.111-.25.35.35 0 00-.36-.36.424.424 0 00-.286.14c-.305.285-.592.452-1.072.452-.767 0-1.2-.48-1.247-1.118h2.762c.25 0 .332-.148.332-.295 0-1.183-.757-2.125-1.92-2.125zm1.118 1.718h-2.272c.083-.572.517-1.025 1.154-1.025.628 0 1.044.471 1.118 1.025zM58.466 12.47a.388.388 0 00-.406-.407c-.582 0-1.016.332-1.173.859v-.398c0-.267-.176-.443-.425-.443a.427.427 0 00-.444.443v3.28c0 .24.157.433.435.433.249 0 .434-.193.434-.434V14.29c0-.933.443-1.414 1.173-1.414.23 0 .406-.175.406-.406z" stroke-width=".00924"/></g><g fill="#fff" stroke="#fff"><path d="M1.56 25.04v-3.288a.428.428 0 00-.433-.435.428.428 0 00-.434.435v3.288c0 .24.175.434.434.434a.422.422 0 00.434-.434zM.62 20.18c0 .278.23.508.508.508.277 0 .508-.23.508-.508a.513.513 0 00-.508-.508.513.513 0 00-.508.508zM6.133 24.329c0-.749-.517-1.016-1.515-1.303-.665-.194-.942-.295-.942-.61 0-.323.314-.443.776-.443.332 0 .619.074.877.213.139.074.259.129.38.129.24 0 .332-.157.332-.323 0-.185-.176-.333-.425-.453a2.73 2.73 0 00-1.146-.258c-.997 0-1.634.452-1.634 1.145 0 .665.415 1.053 1.551 1.358.647.175.905.295.905.61 0 .286-.267.47-.766.47-.444 0-.795-.175-1.044-.36a.536.536 0 00-.342-.13c-.184 0-.332.12-.332.306 0 .12.055.258.185.36.369.286.886.47 1.468.47 1.1 0 1.672-.498 1.672-1.181zM8.082 25.04v-5.431a.422.422 0 00-.434-.434.422.422 0 00-.434.434v5.43c0 .24.175.435.434.435a.422.422 0 00.434-.434zM12.922 25.04v-2.014c0-1.127-.684-1.745-1.903-1.745-.416 0-.914.073-1.238.203-.23.092-.406.203-.406.415 0 .204.138.36.37.36.1 0 .203-.046.286-.073.258-.093.526-.167.914-.167.804 0 1.108.333 1.108 1.063v.397a1.812 1.812 0 00-1.246-.471c-.896 0-1.57.434-1.57 1.256 0 .739.637 1.247 1.533 1.247.59 0 1.025-.203 1.302-.554v.083c0 .24.166.434.425.434.286 0 .425-.194.425-.434zm-.869-.776c0 .388-.461.656-1.006.656-.555 0-.942-.24-.942-.656 0-.416.378-.656.96-.656.49 0 .988.24.988.656z" stroke-width=".00924"/></g></svg>