<svg id="Capa_2" xmlns="http://www.w3.org/2000/svg" viewBox="0 0 542.47 503.09" width="100%" height="100%" preserveAspectRatio="none" fill="#ffffff" data-color-group="0"><g id="Capa_1-2"><path d="m92.83,327.03v-29.07h147.97l-52.51,142.67c-6.4,17.38-1.75,36.37,10.73,48.87,3.33,3.33,7.22,6.19,11.61,8.45,20.85,10.71,46.43,4.21,59.62-15.18l125.67-184.81h100.15c25.62,0,46.41-20.78,46.41-46.41s-20.78-46.41-46.41-46.41h-100.15L270.24,20.31c-13.19-19.38-38.77-25.88-59.62-15.17-20.85,10.71-30.44,35.3-22.34,57.3l52.51,142.69H92.83v-29.07c0-25.63-20.78-46.43-46.41-46.41-25.63,0-46.41,20.78-46.41,46.41v150.97c0,12.82,5.19,24.42,13.59,32.82,8.4,8.4,20.01,13.59,32.82,13.59,25.63,0,46.41-20.78,46.41-46.41"/></g></svg>