<svg width="434.409" height="50" viewBox="0 0 434.409 50" xmlns="http://www.w3.org/2000/svg"><g fill="#fff" stroke="#fff"><path d="M4.048 37.963V5.946h12.006q3.454 0 6.13 1.2 2.675 1.201 4.196 3.465 1.52 2.264 1.52 5.443 0 3.225-1.406 5.466t-4.082 3.419q-2.676 1.178-6.495 1.178H9.994v11.846zm5.946-16.9h5.9q2.859 0 4.46-1.19 1.6-1.189 1.6-3.704 0-2.516-1.635-3.785-1.635-1.27-4.38-1.27H9.995zM32.726 37.963v-22.87h5.854v2.997q1.19-2.013 2.985-2.86 1.795-.845 3.876-.845.732 0 1.35.068.617.069 1.189.206l-.732 6.038q-.709-.252-1.475-.378-.766-.125-1.52-.125-2.47 0-4.072 1.475-1.6 1.475-1.6 4.128v12.166zM62.113 38.65q-3.728 0-6.54-1.522-2.814-1.52-4.38-4.242-1.567-2.721-1.567-6.335 0-2.653.904-4.87.903-2.22 2.561-3.854 1.658-1.636 3.888-2.527 2.23-.892 4.882-.892 2.882 0 5.146 1.017 2.264 1.018 3.762 2.859 1.498 1.841 2.104 4.3.606 2.458.149 5.362H55.138q-.023 1.807.857 3.156.88 1.35 2.516 2.116 1.635.766 3.854.766 1.966 0 3.773-.572 1.807-.572 3.362-1.692l2.058 4.093q-1.075.87-2.676 1.51-1.6.64-3.373.983-1.772.343-3.396.343zm-6.632-14.866H67.35q-.069-2.31-1.532-3.625-1.464-1.315-4.094-1.315-2.607 0-4.3 1.315-1.692 1.315-1.943 3.625zM88.893 38.65q-3.636 0-6.46-1.59-2.825-1.59-4.449-4.323-1.623-2.732-1.623-6.209 0-2.63.96-4.836.96-2.207 2.699-3.843 1.738-1.635 4.082-2.538 2.344-.903 5.111-.903 2.401 0 4.46.64 2.058.64 3.773 1.967l-2.721 4.414q-1.075-.961-2.436-1.43-1.36-.469-2.847-.469-2.241 0-3.854.824-1.612.823-2.481 2.378-.869 1.555-.869 3.774 0 3.293 1.932 5.157 1.933 1.863 5.272 1.863 1.67 0 3.156-.617 1.486-.618 2.584-1.692l2.607 4.436q-1.875 1.395-4.185 2.196-2.31.8-4.711.8zM102.18 37.963v-22.87h5.855v22.87zm2.927-26.711q-1.51 0-2.607-.96-1.098-.961-1.098-2.54 0-1.577 1.098-2.538 1.098-.96 2.607-.96 1.51 0 2.607.96 1.098.96 1.098 2.539 0 1.578-1.098 2.538-1.097.96-2.607.96zM125.37 38.65q-3.66 0-6.484-1.659-2.824-1.658-4.425-4.414-1.601-2.755-1.601-6.049 0-2.424.915-4.62.914-2.195 2.595-3.876 1.681-1.68 3.968-2.652 2.287-.972 5.031-.972 3.637 0 6.461 1.646 2.824 1.647 4.437 4.414 1.612 2.767 1.612 6.06 0 2.425-.926 4.609t-2.596 3.876q-1.67 1.692-3.956 2.664-2.287.972-5.032.972zm0-5.124q1.92 0 3.441-.857 1.521-.858 2.39-2.424.87-1.567.87-3.717 0-2.15-.87-3.727-.869-1.578-2.378-2.424-1.51-.847-3.454-.847-1.943 0-3.464.847-1.521.846-2.379 2.424-.857 1.578-.857 3.727 0 2.15.869 3.717.869 1.566 2.378 2.424 1.51.857 3.453.857zM164.247 38.65q-3.727 0-6.54-1.522-2.813-1.52-4.38-4.242-1.566-2.721-1.566-6.335 0-2.653.903-4.87.903-2.22 2.561-3.854 1.658-1.636 3.888-2.527 2.23-.892 4.883-.892 2.881 0 5.145 1.017 2.264 1.018 3.762 2.859 1.498 1.841 2.104 4.3.606 2.458.149 5.362h-17.884q-.023 1.807.858 3.156.88 1.35 2.515 2.116 1.635.766 3.854.766 1.967 0 3.773-.572 1.807-.572 3.362-1.692l2.058 4.093q-1.075.87-2.675 1.51-1.601.64-3.374.983-1.772.343-3.396.343zm-6.632-14.866h11.87q-.07-2.31-1.533-3.625-1.464-1.315-4.094-1.315-2.607 0-4.299 1.315-1.692 1.315-1.944 3.625zM188.191 38.626q-2.95 0-5.477-.8t-4.288-2.196l2.036-4.162q1.692 1.212 3.727 1.921 2.036.71 3.98.71 2.058 0 3.201-.687 1.144-.686 1.144-1.921 0-1.166-1.007-1.715-1.006-.55-3.796-1.144-4.437-.869-6.449-2.572-2.013-1.704-2.013-4.7 0-2.127 1.178-3.75 1.178-1.624 3.248-2.528 2.07-.903 4.768-.903 2.63 0 4.974.732 2.344.732 4.036 2.058l-1.943 4.185q-.892-.755-2.036-1.303-1.143-.55-2.413-.847-1.269-.297-2.504-.297-1.806 0-2.916.64-1.109.64-1.109 1.807 0 1.166 1.03 1.727 1.029.56 3.727 1.177 4.574.984 6.54 2.608 1.967 1.623 1.967 4.55 0 2.242-1.212 3.9t-3.373 2.584q-2.161.926-5.02.926zM203.216 47.568V15.094h5.169v3.018q1.326-1.669 3.407-2.687 2.082-1.017 5.032-1.017 3.316 0 5.9 1.555 2.584 1.555 4.06 4.288 1.474 2.733 1.474 6.277 0 2.539-.846 4.734-.846 2.196-2.378 3.854t-3.648 2.595q-2.115.938-4.654.938-2.47 0-4.38-.858-1.909-.857-3.304-2.344v12.121zm12.533-14.042q1.944 0 3.453-.857 1.51-.858 2.379-2.424.869-1.567.869-3.717 0-2.15-.87-3.727-.869-1.578-2.39-2.424-1.52-.847-3.441-.847-1.944 0-3.453.847-1.51.846-2.379 2.424-.869 1.578-.869 3.727 0 2.15.858 3.717.857 1.566 2.378 2.424 1.521.857 3.465.857zM243.878 38.65q-3.728 0-6.54-1.522-2.813-1.52-4.38-4.242-1.567-2.721-1.567-6.335 0-2.653.904-4.87.903-2.22 2.561-3.854 1.658-1.636 3.888-2.527 2.23-.892 4.883-.892 2.881 0 5.145 1.017 2.264 1.018 3.762 2.859 1.498 1.841 2.104 4.3.606 2.458.149 5.362h-17.884q-.023 1.807.858 3.156.88 1.35 2.515 2.116 1.635.766 3.854.766 1.966 0 3.773-.572 1.807-.572 3.362-1.692l2.058 4.093q-1.075.87-2.676 1.51-1.6.64-3.373.983-1.772.343-3.396.343zm-6.632-14.866h11.87q-.07-2.31-1.533-3.625-1.464-1.315-4.094-1.315-2.607 0-4.3 1.315-1.691 1.315-1.943 3.625zM270.658 38.65q-3.636 0-6.46-1.59-2.825-1.59-4.449-4.323-1.623-2.732-1.623-6.209 0-2.63.96-4.836.96-2.207 2.699-3.843 1.738-1.635 4.082-2.538 2.344-.903 5.111-.903 2.401 0 4.46.64 2.058.64 3.773 1.967l-2.721 4.414q-1.075-.961-2.436-1.43-1.36-.469-2.847-.469-2.241 0-3.854.824-1.612.823-2.48 2.378-.87 1.555-.87 3.774 0 3.293 1.932 5.157 1.933 1.863 5.272 1.863 1.67 0 3.156-.617 1.486-.618 2.584-1.692l2.607 4.436q-1.875 1.395-4.185 2.196-2.31.8-4.711.8zM283.945 37.963v-22.87h5.855v22.87zm2.927-26.711q-1.509 0-2.607-.96-1.097-.961-1.097-2.54 0-1.577 1.097-2.538 1.098-.96 2.607-.96 1.51 0 2.607.96 1.098.96 1.098 2.539 0 1.578-1.098 2.538-1.097.96-2.607.96zM306.151 38.65q-3.362 0-5.957-1.556-2.596-1.555-4.082-4.3-1.487-2.744-1.487-6.266 0-2.652.846-4.87.846-2.22 2.39-3.843 1.544-1.624 3.66-2.515 2.115-.892 4.63-.892 3.316 0 5.58 1.418 2.264 1.417 3.385 3.682l-.823 1.257v-5.671h5.145v22.869h-5.145v-5.672l.823 1.258q-1.12 2.264-3.385 3.682-2.264 1.418-5.58 1.418zm.87-5.124q1.897 0 3.384-.857 1.486-.858 2.355-2.424.87-1.567.87-3.717 0-2.15-.87-3.727-.869-1.578-2.355-2.424-1.487-.847-3.385-.847-1.898 0-3.396.847-1.498.846-2.355 2.424-.858 1.578-.858 3.727 0 2.15.858 3.717.857 1.566 2.355 2.424 1.498.857 3.396.857zM326.185 37.963V5.031h5.854v32.932z" stroke-width=".02287"/></g></svg>