<svg width="81" height="34.468" viewBox="0 0 81 34.468" xmlns="http://www.w3.org/2000/svg"><g fill="#fff" stroke="#fff"><path d="M40.675 19.698c-1.386 0-2.31-1.05-2.31-2.87v-.112c0-1.82.882-2.842 2.296-2.842 1.414 0 2.31 1.05 2.31 2.828v.112c0 1.792-.882 2.884-2.296 2.884zm-.056 2.254c3.234 0 5.348-2.1 5.348-5.18v-.112c0-3.108-2.254-5.026-5.306-5.026-2.996 0-5.292 2.044-5.292 5.096v.112c0 3.01 2.016 5.11 5.25 5.11zM47.367 21.784h2.884v-3.542h3.094v-2.114h-3.094V14h3.878v-2.226h-6.762zM55.473 21.784h2.884v-3.542h3.094v-2.114h-3.094V14h3.878v-2.226h-6.762z" stroke-width=".014"/></g></svg>