<svg width="44.223" height="29" viewBox="0 0 44.223 29" xmlns="http://www.w3.org/2000/svg"><g fill="#47A01A" stroke="#47A01A"><path d="M15.34 15.756c0-2.08-1.248-3.614-3.25-4.472 1.196-.91 1.95-2.054 1.95-3.536 0-2.574-2.236-4.576-5.746-4.576-3.51 0-5.772 2.002-5.772 4.576 0 1.482.78 2.626 1.976 3.536-2.002.858-3.25 2.392-3.25 4.472 0 2.912 2.6 5.356 7.046 5.356s7.046-2.444 7.046-5.356zm-4.316-7.722c0 1.456-1.196 2.392-2.73 2.392s-2.73-.884-2.73-2.392c0-1.352 1.014-2.262 2.73-2.262s2.73 1.014 2.73 2.262zm1.196 7.644c0 1.638-1.56 2.834-3.926 2.834s-3.926-1.196-3.926-2.834c0-1.534 1.404-2.808 3.926-2.808 2.522 0 3.926 1.274 3.926 2.808zM31.486 16.458c.78 0 1.352-.572 1.352-1.3 0-.728-.572-1.3-1.352-1.3h-2.054V4.81c0-.858-.468-1.534-1.482-1.534-.468 0-.858.13-1.274.572l-9.334 10.296c-.26.312-.442.598-.442 1.014 0 .754.598 1.3 1.352 1.3h8.112v3.016a1.52 1.52 0 001.534 1.534 1.52 1.52 0 001.534-1.534v-3.016zm-10.53-2.6l5.408-6.006v6.006z" stroke-width=".026"/></g></svg>