<svg width="375.667" height="33" viewBox="0 0 375.667 33" xmlns="http://www.w3.org/2000/svg"><g fill="#47A01a" stroke="#fff"><path d="M6.258 24.9l7.845-21h5.775l7.92 21h-5.61l-1.485-4.26h-7.53l-1.455 4.26zm8.04-8.415h5.25l-2.64-7.26zM37.053 25.35q-2.43 0-4.342-1.057-1.913-1.058-3.023-2.895-1.11-1.838-1.11-4.148 0-1.74.653-3.21.652-1.47 1.837-2.572 1.185-1.103 2.76-1.71 1.575-.608 3.42-.608 1.74 0 3.225.473 1.485.472 2.67 1.417l-2.16 3.645q-.735-.675-1.612-.99-.878-.315-1.838-.315-1.26 0-2.175.45-.915.45-1.402 1.32-.488.87-.488 2.085 0 1.83 1.088 2.858 1.087 1.027 2.992 1.027 1.08 0 2.033-.397.952-.398 1.747-1.163l1.995 3.72q-1.29.96-2.947 1.515-1.658.555-3.323.555zM52.608 25.35q-2.55 0-4.005-1.432-1.455-1.433-1.455-4.283V5.22h4.92V9.6h3.585v3.9h-3.585v5.28q0 1.23.54 1.725.54.495 1.395.495.465 0 .923-.112.457-.113.847-.338l.63 3.855q-.705.39-1.695.668-.99.277-2.1.277zm-8.43-11.85V9.6h3.42v3.9zM59.343 24.9V9.6h4.92v15.3zm2.46-17.565q-1.185 0-2.062-.742-.878-.743-.878-2.003 0-1.26.878-1.995.877-.735 2.062-.735 1.2 0 2.07.735.87.735.87 1.995 0 1.26-.87 2.003-.87.742-2.07.742zM71.958 24.9l-5.4-15.3h5.28l3.255 11.055h-.54L77.733 9.6h5.16l-5.205 15.3zM91.368 25.35q-2.16 0-3.87-1.012-1.71-1.013-2.7-2.835-.99-1.823-.99-4.253 0-1.83.57-3.322.57-1.493 1.59-2.558 1.02-1.065 2.4-1.642 1.38-.578 3-.578 2.13 0 3.63.923 1.5.922 2.145 2.452l-.675 1.065V9.6h4.23v15.3h-4.23v-3.99l.675 1.05q-.645 1.53-2.145 2.46-1.5.93-3.63.93zm.84-4.23q1.02 0 1.838-.472.817-.473 1.297-1.343t.48-2.055q0-1.2-.48-2.062-.48-.863-1.297-1.335-.818-.473-1.838-.473t-1.83.473q-.81.472-1.29 1.335-.48.862-.48 2.062 0 1.185.48 2.055.48.87 1.29 1.343.81.472 1.83.472zM118.923 25.35q-2.52 0-4.425-1.012-1.905-1.013-2.97-2.835-1.065-1.823-1.065-4.268 0-1.77.623-3.255.622-1.485 1.74-2.565 1.117-1.08 2.64-1.672 1.522-.593 3.352-.593 2.01 0 3.585.713 1.575.712 2.603 1.98 1.027 1.267 1.417 2.985.39 1.717.03 3.727h-11.49q.015.9.54 1.575.525.675 1.44 1.058.915.382 2.13.382 1.35 0 2.565-.352 1.215-.353 2.325-1.088l1.545 3.33q-.705.54-1.822.968-1.118.427-2.37.675-1.253.247-2.393.247zm-3.66-10.11h6.51q-.03-1.155-.855-1.845t-2.235-.69q-1.425 0-2.362.69-.938.69-1.058 1.845zM129.498 24.9V3.3h4.92v21.6zM145.608 24.315l1.14-4.77h-2.475l.765-3.24h2.46l.885-3.75h-2.49l.765-3.24h2.49l1.155-4.845h3.435l-1.155 4.845h3.45l1.155-4.845h3.435l-1.155 4.845h2.43l-.735 3.255h-2.46l-.855 3.72h2.46l-.765 3.285h-2.475l-1.17 4.755h-3.435l1.14-4.755-3.42-.03-1.14 4.77zm5.325-8.01l3.48-.015.855-3.72-3.48-.015zM165.273 24.9v-21h4.785l7.98 13.245-1.98.015 7.59-13.26h4.77v21h-4.83l.09-14.64.885.315-6.06 10.365h-3.315l-6.3-10.365.855-.315.09 14.64zM200.238 25.35q-2.505 0-4.425-1.102-1.92-1.103-3.007-2.948-1.088-1.845-1.088-4.05 0-1.605.623-3.067.622-1.463 1.762-2.595 1.14-1.133 2.7-1.785 1.56-.653 3.435-.653 2.505 0 4.425 1.103 1.92 1.102 3 2.947t1.08 4.05q0 1.605-.615 3.068-.615 1.462-1.755 2.587-1.14 1.125-2.7 1.785-1.56.66-3.435.66zm0-4.23q1.05 0 1.89-.472.84-.473 1.32-1.343.48-.87.48-2.055 0-1.2-.472-2.062-.473-.863-1.313-1.335-.84-.473-1.905-.473t-1.905.473q-.84.472-1.32 1.335-.48.862-.48 2.062 0 1.185.488 2.055.487.87 1.327 1.343.84.472 1.89.472zM218.163 25.35q-2.175 0-3.9-1.012-1.725-1.013-2.715-2.835-.99-1.823-.99-4.253 0-1.725.57-3.195.57-1.47 1.598-2.572 1.027-1.103 2.437-1.718t3.09-.615q1.755 0 3.165.69 1.41.69 2.46 2.055l-1.125 1.125V3.3h4.92v21.6h-4.245v-3.975l.675 1.11q-.66 1.47-2.205 2.393-1.545.922-3.735.922zm.915-4.23q1.05 0 1.89-.472.84-.473 1.32-1.343.48-.87.48-2.055 0-1.2-.472-2.062-.473-.863-1.313-1.335-.84-.473-1.905-.473t-1.905.473q-.84.472-1.32 1.335-.48.862-.48 2.062 0 1.185.488 2.055.487.87 1.327 1.343.84.472 1.89.472zM239.058 25.35q-2.505 0-4.425-1.102-1.92-1.103-3.007-2.948-1.088-1.845-1.088-4.05 0-1.605.623-3.067.622-1.463 1.762-2.595 1.14-1.133 2.7-1.785 1.56-.653 3.435-.653 2.505 0 4.425 1.103 1.92 1.102 3 2.947t1.08 4.05q0 1.605-.615 3.068-.615 1.462-1.755 2.587-1.14 1.125-2.7 1.785-1.56.66-3.435.66zm0-4.23q1.05 0 1.89-.472.84-.473 1.32-1.343.48-.87.48-2.055 0-1.2-.472-2.062-.473-.863-1.313-1.335-.84-.473-1.905-.473t-1.905.473q-.84.472-1.32 1.335-.48.862-.48 2.062 0 1.185.488 2.055.487.87 1.327 1.343.84.472 1.89.472zM260.598 25.35q-3.255 0-5.745-1.335t-3.885-3.78q-1.395-2.445-1.395-5.775 0-2.43.818-4.447.817-2.018 2.31-3.488 1.492-1.47 3.525-2.272 2.032-.803 4.447-.803 2.625 0 4.41.66 1.785.66 3.225 1.875l-2.49 4.095q-.87-.9-2.1-1.342-1.23-.443-2.715-.443-1.47 0-2.617.428-1.148.427-1.95 1.222-.803.795-1.223 1.92-.42 1.125-.42 2.52 0 1.92.758 3.285.757 1.365 2.167 2.093 1.41.727 3.375.727 1.41 0 2.798-.427 1.387-.428 2.632-1.388l2.28 4.185q-1.455 1.125-3.48 1.808-2.025.682-4.725.682zM277.743 25.35q-2.16 0-3.87-1.012-1.71-1.013-2.7-2.835-.99-1.823-.99-4.253 0-1.83.57-3.322.57-1.493 1.59-2.558 1.02-1.065 2.4-1.642 1.38-.578 3-.578 2.13 0 3.63.923 1.5.922 2.145 2.452l-.675 1.065V9.6h4.23v15.3h-4.23v-3.99l.675 1.05q-.645 1.53-2.145 2.46-1.5.93-3.63.93zm.84-4.23q1.02 0 1.838-.472.817-.473 1.297-1.343t.48-2.055q0-1.2-.48-2.062-.48-.863-1.297-1.335-.818-.473-1.838-.473t-1.83.473q-.81.472-1.29 1.335-.48.862-.48 2.062 0 1.185.48 2.055.48.87 1.29 1.343.81.472 1.83.472zM291.153 24.9V9.6h4.92v1.62q.855-1.08 2.025-1.575 1.17-.495 2.46-.495 2.16 0 3.555.848 1.395.847 2.063 2.19.667 1.342.667 2.842v9.87h-4.92v-8.325q0-1.38-.727-2.175-.728-.795-2.138-.795-.9 0-1.567.39-.668.39-1.043 1.103-.375.712-.375 1.627V24.9zM317.133 25.35q-2.16 0-3.87-1.012-1.71-1.013-2.7-2.835-.99-1.823-.99-4.253 0-1.83.57-3.322.57-1.493 1.59-2.558 1.02-1.065 2.4-1.642 1.38-.578 3-.578 2.13 0 3.63.923 1.5.922 2.145 2.452l-.675 1.065V9.6h4.23v15.3h-4.23v-3.99l.675 1.05q-.645 1.53-2.145 2.46-1.5.93-3.63.93zm.84-4.23q1.02 0 1.838-.472.817-.473 1.297-1.343t.48-2.055q0-1.2-.48-2.062-.48-.863-1.297-1.335-.818-.473-1.838-.473t-1.83.473q-.81.472-1.29 1.335-.48.862-.48 2.062 0 1.185.48 2.055.48.87 1.29 1.343.81.472 1.83.472zM330.543 24.9V9.6h4.92v1.785q.69-1.185 1.83-1.725 1.14-.54 2.475-.54.51 0 .915.06t.795.135l-.585 5.055q-.51-.18-1.08-.292-.57-.113-1.14-.113-1.395 0-2.302.803-.908.802-.908 2.347V24.9zM343.848 24.9V9.6h4.92v15.3zm2.46-17.565q-1.185 0-2.062-.742-.878-.743-.878-2.003 0-1.26.878-1.995.877-.735 2.062-.735 1.2 0 2.07.735.87.735.87 1.995 0 1.26-.87 2.003-.87.742-2.07.742zM360.168 25.35q-2.505 0-4.425-1.102-1.92-1.103-3.007-2.948-1.088-1.845-1.088-4.05 0-1.605.623-3.067.622-1.463 1.762-2.595 1.14-1.133 2.7-1.785 1.56-.653 3.435-.653 2.505 0 4.425 1.103 1.92 1.102 3 2.947t1.08 4.05q0 1.605-.615 3.068-.615 1.462-1.755 2.587-1.14 1.125-2.7 1.785-1.56.66-3.435.66zm0-4.23q1.05 0 1.89-.472.84-.473 1.32-1.343.48-.87.48-2.055 0-1.2-.472-2.062-.473-.863-1.313-1.335-.84-.473-1.905-.473t-1.905.473q-.84.472-1.32 1.335-.48.862-.48 2.062 0 1.185.488 2.055.487.87 1.327 1.343.84.472 1.89.472z" stroke-width=".015"/></g></svg>