<svg width="81.68" height="21" viewBox="0 0 81.68 21" xmlns="http://www.w3.org/2000/svg"><g fill="#fff" stroke="#fff"><path d="M3.148 6.421l-2.044-4.93c-.087-.213-.232-.27-.407-.27-.213 0-.445.145-.445.435 0 .058.02.116.048.194l2.45 5.714a.395.395 0 00.398.262c.203 0 .329-.097.397-.262l2.45-5.714a.565.565 0 00.049-.194c0-.29-.233-.436-.446-.436-.174 0-.32.058-.407.272zM6.44 3.923v1.975c0 1.143.64 1.966 1.754 1.966.639 0 1.123-.29 1.394-.813v.31c0 .32.204.465.456.465.261 0 .455-.175.455-.465V3.923a.443.443 0 00-.455-.456.449.449 0 00-.456.456V5.85c0 .659-.416 1.191-1.142 1.191-.727 0-1.095-.503-1.095-1.181V3.923a.443.443 0 00-.455-.456c-.29 0-.455.213-.455.456zM13.85 3.429c-1.25 0-2.17.949-2.17 2.218 0 1.21.766 2.217 2.209 2.217.697 0 1.356-.28 1.724-.707a.404.404 0 00.116-.261.366.366 0 00-.378-.378.444.444 0 00-.3.146c-.32.3-.62.474-1.123.474-.804 0-1.26-.504-1.308-1.172h2.896c.261 0 .349-.155.349-.31 0-1.24-.795-2.227-2.015-2.227zm1.172 1.801h-2.383c.088-.6.543-1.075 1.211-1.075.659 0 1.094.494 1.172 1.075zM17.966 7.37V1.677a.443.443 0 00-.455-.456.443.443 0 00-.455.456V7.37c0 .251.184.455.455.455a.443.443 0 00.455-.455zM23.041 7.37V5.26c0-1.182-.716-1.831-1.995-1.831-.436 0-.959.077-1.298.213-.242.097-.426.213-.426.436 0 .213.146.377.388.377.106 0 .213-.048.3-.077a2.65 2.65 0 01.959-.175c.842 0 1.162.35 1.162 1.114v.417a1.9 1.9 0 00-1.308-.494c-.939 0-1.646.455-1.646 1.317 0 .775.668 1.307 1.608 1.307.62 0 1.075-.213 1.365-.58v.087c0 .251.175.455.446.455.3 0 .445-.204.445-.455zm-.91-.813c0 .407-.484.688-1.056.688-.58 0-.988-.252-.988-.688 0-.436.397-.688 1.008-.688.513 0 1.036.252 1.036.688zM26.964 5.647c0 1.288.91 2.217 2.024 2.217.65 0 1.23-.329 1.52-.832v.329c0 .252.165.465.446.465s.436-.204.436-.455V1.676a.443.443 0 00-.455-.456.443.443 0 00-.455.456v2.586a1.742 1.742 0 00-1.492-.833c-1.114 0-2.024.881-2.024 2.218zm.91 0c0-.872.514-1.463 1.298-1.463.785 0 1.308.688 1.308 1.463 0 .774-.523 1.462-1.308 1.462-.784 0-1.298-.59-1.298-1.462zM34.741 3.429c-1.25 0-2.17.949-2.17 2.218 0 1.21.766 2.217 2.209 2.217.697 0 1.356-.28 1.724-.707a.404.404 0 00.116-.261.366.366 0 00-.377-.378.444.444 0 00-.3.146c-.32.3-.62.474-1.124.474-.804 0-1.26-.504-1.308-1.172h2.896c.262 0 .349-.155.349-.31 0-1.24-.794-2.227-2.015-2.227zm1.172 1.801h-2.382c.087-.6.542-1.075 1.21-1.075.659 0 1.095.494 1.172 1.075zM38.858 7.37V1.677a.443.443 0 00-.456-.456.443.443 0 00-.455.456V7.37c0 .251.184.455.455.455a.443.443 0 00.456-.455zM45.26 7.37V1.686c0-.3-.184-.465-.446-.465a.586.586 0 00-.213.04l-1.637.503c-.203.058-.33.174-.33.397 0 .261.233.416.456.416.039 0 .078-.01.116-.02l1.143-.348v5.163c0 .251.184.455.455.455a.443.443 0 00.456-.455zM52.233 4.523c0-1.743-.988-3.341-2.76-3.341-1.773 0-2.76 1.598-2.76 3.341s.987 3.341 2.76 3.341c1.772 0 2.76-1.598 2.76-3.34zm-.91 0c0 1.424-.727 2.528-1.85 2.528-1.124 0-1.85-1.104-1.85-2.528s.726-2.528 1.85-2.528c1.123 0 1.85 1.104 1.85 2.528zM59.923 7.37V5.26c0-1.182-.717-1.831-1.995-1.831-.436 0-.959.077-1.298.213-.242.097-.426.213-.426.436 0 .213.145.377.387.377.107 0 .213-.048.3-.077a2.65 2.65 0 01.96-.175c.842 0 1.162.35 1.162 1.114v.417a1.9 1.9 0 00-1.308-.494c-.94 0-1.646.455-1.646 1.317 0 .775.668 1.307 1.607 1.307.62 0 1.076-.213 1.366-.58v.087c0 .251.174.455.446.455.3 0 .445-.204.445-.455zm-.91-.813c0 .407-.485.688-1.056.688-.581 0-.988-.252-.988-.688 0-.436.397-.688 1.007-.688.514 0 1.037.252 1.037.688zM62.219 7.37V1.677a.443.443 0 00-.456-.456.443.443 0 00-.455.456V7.37c0 .251.184.455.455.455a.443.443 0 00.456-.455zM71.342 5.898c0-.93-.562-1.462-1.414-1.695.688-.29.978-.833.978-1.394 0-1.027-.804-1.627-2.043-1.627-.455 0-.988.067-1.424.251-.242.097-.61.272-.61.582 0 .193.126.358.368.358.165 0 .29-.068.426-.136.349-.184.707-.28 1.162-.28.707 0 1.21.251 1.21.92 0 .6-.474 1.026-1.403 1.026h-.417c-.232 0-.416.165-.416.397 0 .233.184.407.416.407h.542c.979 0 1.715.33 1.715 1.153 0 .784-.688 1.23-1.627 1.23-.901 0-1.376-.29-1.889-.688a.435.435 0 00-.262-.097c-.213 0-.416.145-.416.397 0 .136.077.262.165.33.62.542 1.414.832 2.402.832 1.491 0 2.537-.794 2.537-1.966zM74.79 7.37V1.686c0-.3-.184-.465-.445-.465a.586.586 0 00-.213.04l-1.637.503c-.204.058-.33.174-.33.397 0 .261.233.416.456.416.038 0 .077-.01.116-.02l1.143-.348v5.163c0 .251.184.455.455.455a.443.443 0 00.455-.455z" stroke-width=".00969"/></g><g fill="#fff" stroke="#fff"><path d="M.455 16.3c0 1.289.91 2.218 2.024 2.218.65 0 1.23-.329 1.521-.833v.33c0 .252.165.465.446.465.28 0 .435-.204.435-.456V12.33a.443.443 0 00-.455-.455.443.443 0 00-.455.455v2.586a1.742 1.742 0 00-1.492-.833c-1.113 0-2.024.882-2.024 2.218zm.91 0c0-.871.514-1.462 1.298-1.462.785 0 1.308.688 1.308 1.462 0 .775-.523 1.463-1.308 1.463-.784 0-1.297-.59-1.297-1.463zM8.233 14.082c-1.25 0-2.17.95-2.17 2.218 0 1.211.765 2.218 2.208 2.218.698 0 1.356-.28 1.724-.707a.404.404 0 00.116-.261.366.366 0 00-.377-.378.444.444 0 00-.3.145c-.32.3-.62.475-1.124.475-.804 0-1.26-.504-1.308-1.172h2.896c.262 0 .35-.155.35-.31 0-1.24-.795-2.228-2.015-2.228zm1.171 1.802H7.022c.087-.6.542-1.075 1.21-1.075.66 0 1.095.494 1.172 1.075zM16.145 14.082c-1.249 0-2.17.95-2.17 2.218 0 1.211.766 2.218 2.21 2.218.697 0 1.355-.28 1.723-.707a.404.404 0 00.116-.261.366.366 0 00-.377-.378.444.444 0 00-.3.145c-.32.3-.62.475-1.124.475-.804 0-1.26-.504-1.308-1.172h2.896c.262 0 .349-.155.349-.31 0-1.24-.794-2.228-2.015-2.228zm1.172 1.802h-2.382c.087-.6.542-1.075 1.21-1.075.66 0 1.095.494 1.172 1.075zM23.41 18.024V16.05c0-1.143-.64-1.967-1.754-1.967-.639 0-1.123.291-1.394.814v-.31c0-.32-.204-.465-.455-.465-.262 0-.456.175-.456.465v3.438c0 .252.184.456.456.456a.449.449 0 00.455-.456v-1.927c0-.659.416-1.191 1.143-1.191.726 0 1.094.503 1.094 1.181v1.937c0 .252.184.456.455.456.29 0 .455-.213.455-.456zM26.712 14.082c-1.25 0-2.17.95-2.17 2.218 0 1.211.766 2.218 2.209 2.218.697 0 1.356-.28 1.724-.707a.404.404 0 00.116-.261.366.366 0 00-.378-.378.444.444 0 00-.3.145c-.32.3-.62.475-1.123.475-.804 0-1.26-.504-1.308-1.172h2.896c.262 0 .349-.155.349-.31 0-1.24-.794-2.228-2.015-2.228zm1.172 1.802h-2.383c.088-.6.543-1.075 1.211-1.075.659 0 1.095.494 1.172 1.075zM32.485 14.528a.407.407 0 00-.427-.426c-.61 0-1.065.349-1.23.9v-.416c0-.28-.184-.465-.445-.465a.448.448 0 00-.465.465v3.438c0 .252.165.456.455.456a.449.449 0 00.455-.456v-1.588c0-.978.465-1.482 1.23-1.482a.418.418 0 00.427-.426zM37.366 16.3c0-1.22-.872-2.218-2.218-2.218s-2.218.998-2.218 2.218.872 2.218 2.218 2.218 2.218-.997 2.218-2.218zm-.91 0c0 .785-.456 1.444-1.308 1.444-.852 0-1.307-.66-1.307-1.444 0-.784.455-1.443 1.307-1.443.852 0 1.308.659 1.308 1.443zM41.085 16.3c0 1.289.91 2.218 2.024 2.218.65 0 1.23-.329 1.521-.833v.33c0 .252.165.465.446.465.28 0 .435-.204.435-.456V12.33a.443.443 0 00-.455-.455.443.443 0 00-.455.455v2.586a1.742 1.742 0 00-1.492-.833c-1.113 0-2.024.882-2.024 2.218zm.91 0c0-.871.514-1.462 1.298-1.462.785 0 1.308.688 1.308 1.462 0 .775-.523 1.463-1.308 1.463-.784 0-1.297-.59-1.297-1.463zM48.863 14.082c-1.25 0-2.17.95-2.17 2.218 0 1.211.765 2.218 2.208 2.218.698 0 1.356-.28 1.724-.707a.404.404 0 00.116-.261.366.366 0 00-.377-.378.444.444 0 00-.3.145c-.32.3-.62.475-1.124.475-.804 0-1.26-.504-1.308-1.172h2.896c.262 0 .35-.155.35-.31 0-1.24-.795-2.228-2.015-2.228zm1.171 1.802h-2.382c.087-.6.542-1.075 1.21-1.075.66 0 1.095.494 1.172 1.075zM59.71 17.995a.391.391 0 00-.407-.406h-3.545c0-.872.591-1.24 1.899-1.908 1.385-.707 1.995-1.211 1.995-2.14 0-1.124-.959-1.706-2.344-1.706-.552 0-1.143.078-1.763.369-.426.203-.668.397-.668.687 0 .194.165.378.407.378.077 0 .155-.03.213-.068.59-.387 1.065-.552 1.763-.552.9 0 1.482.3 1.482.9 0 .65-.707.998-1.87 1.599-1.365.707-2.12 1.269-2.12 2.838 0 .222.174.416.396.416h4.155a.397.397 0 00.407-.407zM66.296 15.177c0-1.743-.988-3.342-2.76-3.342-1.773 0-2.76 1.599-2.76 3.342s.987 3.341 2.76 3.341c1.772 0 2.76-1.598 2.76-3.341zm-.91 0c0 1.424-.727 2.528-1.85 2.528-1.124 0-1.85-1.104-1.85-2.528s.726-2.528 1.85-2.528c1.123 0 1.85 1.104 1.85 2.528zM72.388 17.995a.391.391 0 00-.407-.406h-3.544c0-.872.59-1.24 1.898-1.908 1.385-.707 1.995-1.211 1.995-2.14 0-1.124-.959-1.706-2.344-1.706-.552 0-1.143.078-1.762.369-.427.203-.669.397-.669.687 0 .194.165.378.407.378.077 0 .155-.03.213-.068.59-.387 1.065-.552 1.763-.552.9 0 1.482.3 1.482.9 0 .65-.707.998-1.87 1.599-1.365.707-2.12 1.269-2.12 2.838 0 .222.174.416.396.416h4.155a.397.397 0 00.407-.407zM78.567 16.378c0-1.21-.842-2.102-2.382-2.102-.494 0-.959.107-1.356.368l.29-1.869h2.5a.42.42 0 00.425-.407.415.415 0 00-.426-.416H74.78c-.242 0-.397.145-.435.368l-.456 2.867c-.038.242.107.435.407.435a.48.48 0 00.252-.077c.523-.31.969-.475 1.588-.475.988 0 1.521.533 1.521 1.308 0 .794-.649 1.366-1.637 1.366-.755 0-1.24-.214-1.83-.64a.398.398 0 00-.252-.087.394.394 0 00-.407.417c0 .106.068.232.174.32.61.532 1.444.764 2.315.764 1.647 0 2.547-1.007 2.547-2.14z" stroke-width=".00969"/></g></svg>