<svg width="54.997" height="17" viewBox="0 0 54.997 17" xmlns="http://www.w3.org/2000/svg"><g fill="#fff" stroke="#fff"><path d="M2.73 5.15L.959.874C.882.689.756.639.605.639c-.185 0-.387.126-.387.378 0 .05.017.1.042.168l2.126 4.957a.342.342 0 00.345.227.342.342 0 00.344-.227l2.126-4.957a.49.49 0 00.042-.168c0-.252-.202-.378-.387-.378-.151 0-.277.05-.353.235zM5.587 2.983v1.714c0 .991.555 1.705 1.52 1.705.555 0 .975-.252 1.21-.706v.27c0 .276.177.403.396.403.226 0 .394-.152.394-.404V2.983a.384.384 0 00-.394-.395.39.39 0 00-.395.395v1.672c0 .57-.362 1.033-.992 1.033s-.95-.437-.95-1.025v-1.68a.384.384 0 00-.394-.395c-.252 0-.395.185-.395.395zM12.014 2.554c-1.083 0-1.882.823-1.882 1.924 0 1.05.664 1.924 1.916 1.924.605 0 1.176-.244 1.496-.613a.35.35 0 00.1-.227.318.318 0 00-.327-.328c-.101 0-.193.06-.26.126-.278.26-.538.412-.975.412-.698 0-1.093-.437-1.135-1.017h2.513c.226 0 .302-.134.302-.268 0-1.076-.689-1.933-1.748-1.933zm1.017 1.563h-2.067c.076-.521.47-.933 1.05-.933.572 0 .95.429 1.017.933zM15.585 5.974v-4.94a.384.384 0 00-.395-.395.384.384 0 00-.395.394v4.94c0 .22.16.396.395.396a.384.384 0 00.395-.395zM19.988 5.974V4.142c0-1.025-.622-1.588-1.731-1.588-.378 0-.832.067-1.126.185-.21.084-.37.185-.37.378 0 .185.126.328.337.328.092 0 .184-.042.26-.068.235-.084.479-.15.832-.15.73 0 1.008.302 1.008.965v.362a1.648 1.648 0 00-1.134-.429c-.815 0-1.429.395-1.429 1.143 0 .672.58 1.134 1.395 1.134.538 0 .933-.185 1.185-.504v.076c0 .218.151.395.386.395.26 0 .387-.177.387-.395zm-.79-.706c0 .353-.42.596-.916.596-.504 0-.857-.218-.857-.596s.345-.597.874-.597c.445 0 .899.219.899.597zM23.39 4.478c0 1.118.79 1.924 1.756 1.924.563 0 1.067-.286 1.32-.722v.285c0 .219.142.404.386.404.244 0 .378-.177.378-.395v-4.94a.384.384 0 00-.395-.395.384.384 0 00-.395.394v2.244a1.511 1.511 0 00-1.294-.723c-.966 0-1.756.765-1.756 1.924zm.79 0c0-.756.446-1.269 1.126-1.269.68 0 1.134.597 1.134 1.27 0 .671-.453 1.268-1.134 1.268-.68 0-1.126-.513-1.126-1.269zM30.137 2.554c-1.084 0-1.882.823-1.882 1.924 0 1.05.664 1.924 1.916 1.924.605 0 1.176-.244 1.495-.613a.35.35 0 00.101-.227.318.318 0 00-.328-.328c-.1 0-.193.06-.26.126-.277.26-.538.412-.975.412-.697 0-1.092-.437-1.134-1.017h2.512c.227 0 .303-.134.303-.268 0-1.076-.69-1.933-1.748-1.933zm1.017 1.563h-2.067c.075-.521.47-.933 1.05-.933.571 0 .95.429 1.017.933zM38.497 5.974V4.142c0-1.025-.622-1.588-1.731-1.588-.378 0-.832.067-1.126.185-.21.084-.37.185-.37.378 0 .185.127.328.337.328.092 0 .184-.042.26-.068.235-.084.479-.15.832-.15.73 0 1.008.302 1.008.965v.362a1.648 1.648 0 00-1.134-.429c-.815 0-1.429.395-1.429 1.143 0 .672.58 1.134 1.395 1.134.538 0 .933-.185 1.185-.504v.076c0 .218.151.395.386.395.26 0 .387-.177.387-.395zm-.79-.706c0 .353-.42.596-.916.596-.504 0-.857-.218-.857-.596s.345-.597.874-.597c.445 0 .899.219.899.597zM43.538 4.478c0-1.16-.79-1.924-1.756-1.924-.563 0-1.025.294-1.294.723V1.033a.384.384 0 00-.395-.394.384.384 0 00-.395.394v4.94c0 .22.135.396.378.396.244 0 .387-.185.387-.404V5.68c.252.436.756.722 1.319.722.966 0 1.756-.806 1.756-1.924zm-.79 0c0 .756-.445 1.269-1.126 1.269-.68 0-1.134-.597-1.134-1.269 0-.672.454-1.269 1.134-1.269.68 0 1.126.513 1.126 1.27zM46.79 2.94c0-.21-.144-.37-.37-.37-.53 0-.925.303-1.067.782v-.361c0-.244-.16-.403-.387-.403a.388.388 0 00-.403.403v2.983c0 .218.143.395.395.395a.39.39 0 00.395-.395V4.596c0-.849.403-1.286 1.067-1.286.21 0 .37-.16.37-.37zM48.31 5.974V2.983a.39.39 0 00-.395-.395.39.39 0 00-.395.395v2.99c0 .22.16.396.395.396a.384.384 0 00.395-.395zm-.857-4.42c0 .252.21.462.462.462s.462-.21.462-.462a.466.466 0 00-.462-.462.466.466 0 00-.462.462zM50.36 5.974v-4.94a.384.384 0 00-.395-.395.384.384 0 00-.395.394v4.94c0 .22.16.396.395.396a.384.384 0 00.395-.395z" stroke-width=".0084"/></g><g fill="#fff" stroke="#fff"><path d="M3.772 14.375v-1.831c0-1.025-.621-1.588-1.73-1.588-.378 0-.832.067-1.126.185-.21.084-.37.185-.37.378 0 .185.126.327.336.327.093 0 .185-.042.26-.067.236-.084.48-.151.832-.151.731 0 1.009.302 1.009.966v.361a1.648 1.648 0 00-1.135-.428c-.815 0-1.428.395-1.428 1.143 0 .672.58 1.134 1.395 1.134.537 0 .932-.185 1.184-.504v.075c0 .219.152.395.387.395.26 0 .386-.176.386-.395zm-.79-.705c0 .353-.42.596-.915.596-.504 0-.857-.218-.857-.596s.344-.597.874-.597c.445 0 .899.219.899.597zM8.2 14.972v-3.588a.39.39 0 00-.395-.395.39.39 0 00-.395.395v3.638c0 .446-.126.664-.613.664H6.78a.318.318 0 00-.327.328c0 .185.142.327.327.327h.093c.983 0 1.327-.487 1.327-1.37zm-.857-5.016c0 .252.21.462.462.462s.462-.21.462-.462a.466.466 0 00-.462-.462.466.466 0 00-.462.462zM9.418 11.384v1.714c0 .992.555 1.706 1.521 1.706.555 0 .975-.252 1.21-.706v.269c0 .277.176.403.395.403.227 0 .395-.151.395-.403v-2.983a.384.384 0 00-.395-.395.39.39 0 00-.395.395v1.672c0 .572-.361 1.034-.991 1.034s-.95-.437-.95-1.025v-1.68a.384.384 0 00-.395-.396c-.252 0-.395.185-.395.395zM17.72 14.375v-1.714c0-.991-.555-1.705-1.521-1.705-.555 0-.975.252-1.21.706v-.27c0-.276-.177-.403-.395-.403-.227 0-.395.152-.395.404v2.982c0 .219.16.395.395.395a.39.39 0 00.395-.395v-1.672c0-.57.361-1.033.991-1.033s.95.437.95 1.025v1.68c0 .219.16.395.394.395.252 0 .395-.185.395-.395zM19.727 14.375v-2.99a.39.39 0 00-.395-.396.39.39 0 00-.394.395v2.991c0 .219.16.395.394.395a.384.384 0 00.395-.395zm-.857-4.419c0 .252.21.462.462.462s.463-.21.463-.462a.466.466 0 00-.463-.462.466.466 0 00-.462.462zM24.6 12.88c0-1.059-.756-1.924-1.924-1.924s-1.924.865-1.924 1.924c0 1.058.756 1.924 1.924 1.924s1.924-.866 1.924-1.924zm-.79 0c0 .68-.394 1.252-1.134 1.252-.74 0-1.134-.572-1.134-1.252s.395-1.252 1.134-1.252c.74 0 1.135.571 1.135 1.252z" stroke-width=".0084"/></g></svg>