<svg width="67.631" height="19" viewBox="0 0 67.631 19" xmlns="http://www.w3.org/2000/svg"><g fill="#fff" stroke="#fff"><path d="M1.636 4.795c-.019-.122-.075-.217-.217-.217-.142 0-.208.095-.227.217L.974 6.441v2.053c0 .246.18.444.445.444a.432.432 0 00.444-.444V6.44zM.851 3.443a.57.57 0 00.568.567.57.57 0 00.567-.567.57.57 0 00-.567-.568.57.57 0 00-.568.568zM8.342 5.42c0-1.079-.841-1.485-2.355-1.958-1.087-.34-1.55-.54-1.55-1.097 0-.615.595-.88 1.522-.88.624 0 1.154.199 1.617.463a.362.362 0 00.18.048c.265 0 .388-.19.388-.407 0-.293-.445-.52-.766-.643A4.068 4.068 0 005.949.68c-1.418 0-2.421.568-2.421 1.703 0 .889.53 1.409 2.213 1.91 1.135.34 1.693.54 1.693 1.173 0 .54-.491.946-1.494.946-.776 0-1.258-.255-1.778-.587-.114-.066-.208-.113-.322-.113-.217 0-.388.132-.388.369 0 .16.104.312.246.425.549.426 1.4.7 2.233.7 1.58 0 2.411-.775 2.411-1.787zM13.61 5.041c0-1.191-.85-2.166-2.165-2.166s-2.166.975-2.166 2.166c0 1.192.851 2.166 2.166 2.166s2.166-.974 2.166-2.166zm-.888 0c0 .767-.445 1.41-1.277 1.41-.833 0-1.277-.643-1.277-1.41 0-.766.444-1.409 1.277-1.409.832 0 1.277.643 1.277 1.41zM15.654 6.725V1.163a.432.432 0 00-.445-.444.432.432 0 00-.444.444v5.562c0 .246.18.445.444.445a.432.432 0 00.445-.445zM21.14 5.041c0-1.191-.851-2.166-2.166-2.166s-2.166.975-2.166 2.166c0 1.192.851 2.166 2.166 2.166s2.166-.974 2.166-2.166zm-.89 0c0 .767-.444 1.41-1.276 1.41-.832 0-1.277-.643-1.277-1.41 0-.766.445-1.409 1.277-1.409.832 0 1.277.643 1.277 1.41zM29 6.725v-1.93c0-1.116-.624-1.92-1.712-1.92-.624 0-1.097.284-1.362.795V1.173c0-.312-.199-.454-.445-.454-.255 0-.444.17-.444.454v5.552c0 .246.18.445.444.445a.438.438 0 00.445-.445V4.843c0-.643.407-1.164 1.116-1.164.71 0 1.069.492 1.069 1.154v1.892c0 .246.18.445.444.445.284 0 .445-.209.445-.445zM33.909 6.725V4.663c0-1.154-.7-1.788-1.949-1.788-.425 0-.936.076-1.267.208-.236.095-.416.209-.416.426 0 .208.142.369.378.369.104 0 .208-.047.293-.076.265-.094.54-.17.937-.17.823 0 1.135.34 1.135 1.088v.407a1.855 1.855 0 00-1.277-.483c-.918 0-1.608.445-1.608 1.287 0 .756.653 1.276 1.57 1.276.605 0 1.05-.208 1.334-.567v.085c0 .246.17.445.435.445.293 0 .435-.199.435-.445zm-.89-.794c0 .397-.472.671-1.03.671-.568 0-.965-.246-.965-.671 0-.426.388-.672.984-.672.501 0 1.012.246 1.012.672zM38.525 5.997c0-.766-.53-1.04-1.552-1.334-.68-.199-.964-.303-.964-.624 0-.331.321-.454.794-.454.34 0 .634.075.899.217.142.076.265.133.388.133.246 0 .34-.161.34-.331 0-.19-.18-.34-.435-.464a2.796 2.796 0 00-1.173-.265c-1.021 0-1.674.464-1.674 1.173 0 .681.426 1.079 1.589 1.39.662.18.927.303.927.625 0 .293-.274.482-.785.482-.454 0-.814-.18-1.069-.369a.55.55 0 00-.35-.132c-.189 0-.34.123-.34.312 0 .123.056.265.189.369.378.293.908.482 1.504.482 1.125 0 1.712-.51 1.712-1.21zM40.993 6.725V3.727h.814c.208 0 .369-.161.369-.37a.363.363 0 00-.37-.368h-.813v-1.24a.432.432 0 00-.444-.444.432.432 0 00-.445.445v1.239h-.719a.363.363 0 00-.368.369c0 .208.16.369.368.369h.72v2.998c0 .246.179.445.444.445a.432.432 0 00.444-.445zM46.423 6.725V4.663c0-1.154-.7-1.788-1.949-1.788-.426 0-.936.076-1.267.208-.237.095-.416.209-.416.426 0 .208.141.369.378.369.104 0 .208-.047.293-.076.265-.094.54-.17.936-.17.823 0 1.135.34 1.135 1.088v.407a1.855 1.855 0 00-1.276-.483c-.918 0-1.608.445-1.608 1.287 0 .756.652 1.276 1.57 1.276.605 0 1.05-.208 1.333-.567v.085c0 .246.17.445.435.445.294 0 .436-.199.436-.445zm-.89-.794c0 .397-.472.671-1.03.671-.568 0-.965-.246-.965-.671 0-.426.388-.672.983-.672.502 0 1.012.246 1.012.672zM52.372 2.875c-1.22 0-2.119.927-2.119 2.166 0 1.183.748 2.166 2.157 2.166.68 0 1.324-.274 1.683-.69a.394.394 0 00.114-.255.358.358 0 00-.369-.37.434.434 0 00-.293.143c-.312.293-.605.463-1.097.463-.785 0-1.23-.492-1.277-1.144h2.828c.255 0 .34-.152.34-.303 0-1.21-.775-2.176-1.967-2.176zm1.145 1.76H51.19c.085-.587.53-1.05 1.182-1.05.643 0 1.069.482 1.145 1.05zM56.392 6.725V1.163a.432.432 0 00-.445-.444.432.432 0 00-.444.444v5.562c0 .246.18.445.444.445a.432.432 0 00.445-.445z" stroke-width=".00946"/></g><g fill="#fff" stroke="#fff"><path d="M2.8 16.184V10.63c0-.293-.18-.454-.435-.454a.572.572 0 00-.208.038l-1.599.492c-.199.057-.322.17-.322.388 0 .255.227.407.445.407.038 0 .076-.01.114-.02l1.116-.34v5.042c0 .246.18.444.444.444a.432.432 0 00.445-.444zM9.279 14.623c0-1.173-.851-1.977-2.213-1.977-.71 0-1.42.237-1.835.86.321-1.257 1.333-2.07 2.383-2.648.19-.104.274-.217.274-.378 0-.18-.132-.34-.378-.34-.104 0-.18.028-.284.066-1.333.52-2.913 2.052-2.913 4.124 0 1.324.87 2.336 2.535 2.336 1.504 0 2.43-.88 2.43-2.043zm-.89.01c0 .718-.567 1.286-1.532 1.286-.955 0-1.541-.492-1.541-1.268 0-.794.747-1.258 1.58-1.258.888 0 1.494.464 1.494 1.24zM12.92 14.5c0 1.258.89 2.166 1.977 2.166.634 0 1.201-.322 1.485-.813v.321c0 .246.161.454.435.454.275 0 .426-.198.426-.444v-5.562a.432.432 0 00-.445-.445.432.432 0 00-.444.445v2.525a1.701 1.701 0 00-1.457-.813c-1.088 0-1.977.86-1.977 2.166zm.89 0c0-.851.5-1.428 1.267-1.428.766 0 1.277.671 1.277 1.428 0 .757-.51 1.428-1.277 1.428-.766 0-1.268-.577-1.268-1.428zM20.516 12.334c-1.22 0-2.12.927-2.12 2.166 0 1.182.748 2.166 2.157 2.166.681 0 1.325-.274 1.684-.69a.394.394 0 00.114-.256.358.358 0 00-.37-.369.434.434 0 00-.293.142c-.312.293-.605.464-1.097.464-.785 0-1.23-.492-1.277-1.145h2.828c.256 0 .341-.151.341-.303 0-1.21-.776-2.175-1.967-2.175zm1.144 1.76h-2.327c.085-.587.53-1.05 1.183-1.05.643 0 1.068.482 1.144 1.05zM28.243 12.334c-1.22 0-2.118.927-2.118 2.166 0 1.182.747 2.166 2.156 2.166.681 0 1.324-.274 1.684-.69a.394.394 0 00.113-.256.358.358 0 00-.369-.369.434.434 0 00-.293.142c-.312.293-.605.464-1.097.464-.785 0-1.23-.492-1.277-1.145h2.828c.256 0 .34-.151.34-.303 0-1.21-.775-2.175-1.967-2.175zm1.145 1.76H27.06c.085-.587.53-1.05 1.182-1.05.643 0 1.07.482 1.145 1.05zM35.337 16.184v-1.93c0-1.116-.624-1.92-1.712-1.92-.624 0-1.097.284-1.362.794v-.302c0-.312-.198-.454-.444-.454-.256 0-.445.17-.445.454v3.358c0 .246.18.444.445.444a.438.438 0 00.444-.444V14.3c0-.643.407-1.163 1.116-1.163.71 0 1.07.492 1.07 1.154v1.892c0 .246.179.444.444.444.283 0 .444-.208.444-.444zM38.563 12.334c-1.22 0-2.12.927-2.12 2.166 0 1.182.748 2.166 2.157 2.166.681 0 1.325-.274 1.684-.69a.394.394 0 00.113-.256.358.358 0 00-.368-.369.434.434 0 00-.294.142c-.312.293-.605.464-1.097.464-.785 0-1.23-.492-1.277-1.145h2.828c.256 0 .34-.151.34-.303 0-1.21-.775-2.175-1.966-2.175zm1.144 1.76H37.38c.085-.587.53-1.05 1.183-1.05.643 0 1.068.482 1.144 1.05zM44.2 12.77a.397.397 0 00-.416-.417c-.596 0-1.04.34-1.202.88v-.407c0-.274-.18-.454-.435-.454a.437.437 0 00-.454.454v3.358c0 .246.161.444.445.444a.438.438 0 00.444-.444v-1.552c0-.955.454-1.447 1.202-1.447.236 0 .416-.18.416-.416zM48.967 14.5c0-1.192-.851-2.166-2.166-2.166s-2.166.974-2.166 2.166.851 2.166 2.166 2.166 2.166-.974 2.166-2.166zm-.89 0c0 .766-.444 1.41-1.276 1.41-.832 0-1.277-.644-1.277-1.41 0-.766.445-1.41 1.277-1.41.832 0 1.277.644 1.277 1.41zM51.275 13.062v-2.44a.432.432 0 00-.445-.445.432.432 0 00-.444.445v2.44l.217 1.646c.02.123.085.218.227.218.142 0 .199-.095.218-.218zm-1.012 2.999a.57.57 0 00.567.567.57.57 0 00.568-.567.57.57 0 00-.568-.568.57.57 0 00-.567.568z" stroke-width=".00946"/></g></svg>