<svg width="31.746" height="13" viewBox="0 0 31.746 13" xmlns="http://www.w3.org/2000/svg"><g fill="#47A01A" stroke="#47A01A"><path d="M1.527 4.047V1.811a.31.31 0 00-.32-.32.31.31 0 00-.32.32v2.236c0 .166.119.32.32.32a.31.31 0 00.32-.32zM8.627 1.882c0-.19-.13-.296-.366-.296H3.148a.316.316 0 00-.32.308c0 .177.142.307.32.307h4.556C6.166 4.118 5.101 6.25 5.101 9.207c0 .202.13.355.355.355.225 0 .355-.153.355-.355 0-2.982 1.041-4.935 2.734-7.112a.34.34 0 00.082-.213zM15.456 7.03c0-1.574-1.172-2.497-2.828-2.497-.793 0-1.539.213-2.024.627l.485-2.959h3.397c.189 0 .32-.142.32-.307a.308.308 0 00-.32-.308h-3.657c-.19 0-.32.106-.355.296L9.87 5.657c-.024.166.071.355.32.355a.422.422 0 00.272-.095c.674-.568 1.325-.78 2.142-.78 1.254 0 2.142.697 2.142 1.916 0 1.113-.84 1.953-2.296 1.953-1.006 0-1.728-.26-2.45-.876a.34.34 0 00-.213-.082c-.177 0-.331.118-.331.307 0 .107.06.178.13.249.698.65 1.657 1.018 2.864 1.018 1.882 0 3.006-1.16 3.006-2.592z" stroke-width=".01183"/></g></svg>