<svg width="454" height="54" viewBox="0 0 454 54" xmlns="http://www.w3.org/2000/svg"><g fill="#fff" stroke="#fff"><path d="M4.4 42.438h3.912V13.005L20.29 42.438h1.32l11.588-29.433v29.433h4.253V7.48h-5.867L21.121 34.713 10.316 7.48H4.4zM58.523 42.878c8.997 0 13.25-5.231 13.25-13.738V7.48H67.52v21.073c0 8.556-3.325 10.805-8.899 10.805-5.818 0-8.41-2.836-8.41-10.17V7.48h-4.253v22.197c0 8.507 4.547 13.201 12.565 13.201zM80.28 42.438h4.254V27.233h5.378l10.414 15.205h4.742L94.361 26.94c4.792-.929 8.654-3.764 8.654-9.534v-.195c0-6.992-5.525-9.73-12.223-9.73H80.28zm4.254-18.579V10.903h6.551c4.743 0 7.676 1.564 7.676 6.307v.195c0 4.303-2.689 6.454-7.676 6.454zM125.114 42.878c7.823 0 13.396-3.96 14.619-12.027h-3.96c-.88 5.671-4.84 8.556-10.561 8.556-7.53 0-12.027-5.378-12.027-14.277v-.39c0-8.801 4.84-14.424 12.076-14.424 5.965 0 9.045 2.738 9.925 8.067h4.205c-.734-7.578-6.894-11.44-14.18-11.44-9.484 0-16.427 7.48-16.427 17.845v.391c0 10.756 6.21 17.7 16.33 17.7zM146.43 42.438h4.255V7.48h-4.254zM157.09 42.438h4.008l3.374-10.072h14.423l3.423 10.072h4.204L174.69 7.48h-5.573zm14.618-31.437l6.063 17.992h-12.126z" stroke-width=".04889"/></g></svg>