<svg width="96" height="10" viewBox="0 0 96 10" xmlns="http://www.w3.org/2000/svg"><g fill="#47A01A" stroke="#fff"><path d="M5.743 4.145c0-1.65-1.154-2.956-2.947-2.956H1.109a.262.262 0 00-.266.267v5.379c0 .142.107.266.266.266h1.687c1.793 0 2.947-1.305 2.947-2.956zm-.533 0c0 1.394-.905 2.476-2.45 2.476H1.376V1.67H2.76c1.545 0 2.45 1.083 2.45 2.476zM8.583 3.142c-1.172 0-1.98.95-1.98 2.033 0 1.074.764 2.032 2.033 2.032.702 0 1.278-.328 1.58-.745a.266.266 0 00.054-.16.214.214 0 00-.222-.222c-.098 0-.16.062-.205.115-.32.382-.71.56-1.207.56-.932 0-1.464-.693-1.49-1.403h3.08a.225.225 0 00.221-.222c0-1.136-.772-1.988-1.864-1.988zM9.96 4.908H7.163c.07-.727.639-1.322 1.42-1.322.763 0 1.305.577 1.376 1.322zM14.521 6.133c0-.7-.612-.932-1.491-1.19-.834-.239-1.083-.425-1.083-.789 0-.408.426-.577 1.003-.577.355 0 .728.115 1.012.266.08.045.142.08.213.08.142 0 .222-.089.222-.204 0-.115-.098-.195-.24-.266a2.538 2.538 0 00-1.198-.31c-.914 0-1.527.336-1.527 1.029 0 .559.373.923 1.554 1.251.568.16 1.02.293 1.02.737 0 .39-.372.639-.994.639-.435 0-.879-.15-1.216-.417a.304.304 0 00-.204-.08c-.115 0-.204.08-.204.195 0 .071.035.151.106.204.382.32.906.506 1.492.506.985 0 1.535-.452 1.535-1.074zM18.941 6.906c0 .15.116.266.267.266.15 0 .266-.116.266-.266V1.385a.262.262 0 00-.266-.267.262.262 0 00-.267.267v2.574c-.337-.506-.878-.817-1.588-.817-1.083 0-1.944.852-1.944 2.033 0 1.18.86 2.032 1.944 2.032.71 0 1.251-.31 1.588-.816v.515zm-3-1.731c0-.923.604-1.58 1.491-1.58.915 0 1.51.719 1.51 1.58 0 .86-.595 1.58-1.51 1.58-.887 0-1.49-.657-1.49-1.58zM22.625 3.142c-1.172 0-1.98.95-1.98 2.033 0 1.074.764 2.032 2.033 2.032.701 0 1.278-.328 1.58-.745a.266.266 0 00.053-.16.214.214 0 00-.222-.222c-.097 0-.16.062-.204.115-.32.382-.71.56-1.207.56-.932 0-1.464-.693-1.491-1.403h3.08a.225.225 0 00.222-.222c0-1.136-.772-1.988-1.864-1.988zM24 4.908h-2.796c.07-.727.639-1.322 1.42-1.322.763 0 1.305.577 1.376 1.322z" stroke-width=".00888"/></g></svg>