<svg id="Capa_2" xmlns="http://www.w3.org/2000/svg" viewBox="0 0 257.5 87" width="100%" height="100%" preserveAspectRatio="none" fill="#ffffff" data-color-group="0"><g id="Capa_2-2"><g><g><path d="M5.8,72.6l-2.5,12h5.8l-.4,2.2H0l3-14.1h2.8v-.1Z"/><path d="M15,76.4l-2.2,10.3h-2.6l2.2-10.3h2.6Zm2.1-5l-3.5,3.6h-1.3l2.4-3.6h2.4Z"/><path d="M25.5,86.7h-2.7l1.2-5.4c.1-.4,.1-.8,.1-1.2,0-1.1-.6-1.7-1.6-1.7-1.5,0-2.7,1.2-3.2,3.6l-1,4.7h-2.7l2.2-10.4h2.4l-.4,1.8c1.1-1.3,2.4-2,3.8-2,2,0,3.2,1.3,3.2,3.5,0,.6-.1,1.4-.3,2.3l-1,4.8Z"/><path d="M31,82.2v.4c0,1.5,1.1,2.5,2.9,2.5,1.1,0,2.1-.2,3-.7l-.1,2c-1.1,.4-2.3,.6-3.4,.6-3.1,0-4.9-1.8-4.9-4.8,0-1.6,.6-3.2,1.7-4.4,1.2-1.3,2.5-1.8,4.3-1.8,2.5,0,4.1,1.6,4.1,4.2,0,.5-.1,1.2-.2,2h-7.4Zm5.2-2.2c0-1.4-.8-2.2-2-2.2-1.4,0-2.5,1-3,2.7h5v-.5Z"/><path d="M48.7,84c-.2,1-.4,1.9-.4,2.7h-2.3l.2-1.6c-.9,1.2-2.1,1.8-3.5,1.8-2.1,0-3.4-1.2-3.4-3,0-2.3,2.1-3.8,5.8-3.8,.4,0,1,0,1.8,.1v-.5c0-1.2-.8-1.9-2.2-1.9-1,0-2,.2-3.2,.8l.3-2c1.1-.4,2.2-.6,3.4-.6,2.7,0,4.1,1.3,4.1,3.4,0,.4-.1,.9-.2,1.5l-.4,3.1Zm-3.1-2.3c-2.4,0-3.6,.7-3.6,2,0,.8,.6,1.4,1.6,1.4,1.5,0,2.8-1.2,3.1-3.4h-1.1Z"/><path d="M58.8,78.6c-.9-.4-1.7-.7-2.6-.7-1.2,0-1.8,.5-1.8,1.2,0,.8,.8,1,2,1.7,1.5,.8,2.1,1.5,2.1,2.9,0,1.9-1.7,3.3-4.6,3.3-1.3,0-2.5-.2-3.6-.7l.6-2c.9,.5,1.7,.7,2.7,.7,1.4,0,2.2-.5,2.2-1.2s-.7-1-1.8-1.6c-1.5-.8-2.2-1.5-2.2-2.9,0-1.8,1.6-3.2,4.4-3.2,1.1,0,2.2,.2,3.3,.6l-.7,1.9Z"/><path d="M74.9,84c-.2,1-.4,1.9-.4,2.7h-2.3l.2-1.6c-.9,1.2-2.1,1.8-3.5,1.8-2.1,0-3.4-1.2-3.4-3,0-2.3,2.1-3.8,5.8-3.8,.4,0,1,0,1.8,.1v-.5c0-1.2-.8-1.9-2.2-1.9-1,0-2,.2-3.2,.8l.3-2c1.1-.4,2.2-.6,3.4-.6,2.7,0,4.1,1.3,4.1,3.4,0,.4-.1,.9-.2,1.5l-.4,3.1Zm-3.2-2.3c-2.4,0-3.6,.7-3.6,2,0,.8,.6,1.4,1.6,1.4,1.5,0,2.8-1.2,3.1-3.4h-1.1Z"/><path d="M79.7,82.2v.4c0,1.5,1.1,2.5,2.9,2.5,1.1,0,2.1-.2,3-.7l-.1,2c-1.1,.4-2.3,.6-3.4,.6-3.1,0-4.9-1.8-4.9-4.8,0-1.6,.6-3.2,1.7-4.4,1.2-1.3,2.5-1.8,4.3-1.8,2.5,0,4.1,1.6,4.1,4.2,0,.5-.1,1.2-.2,2h-7.4Zm5.3-2.2c0-1.4-.8-2.2-2-2.2-1.4,0-2.5,1-3,2.7h5v-.5Zm1.8-8.6l-3.5,3.6h-1.3l2.4-3.6h2.4Z"/><path d="M96.3,78.7c-.5-.1-.9-.2-1.3-.2-1.8,0-2.6,1.1-3.1,3.5l-1,4.8h-2.7l2.1-10.4h2.5l-.4,1.8c1-1.3,2-2,3.3-2,.4,0,.8,.1,1.2,.2l-.6,2.3Z"/><path d="M99.1,82.2v.4c0,1.5,1.1,2.5,2.9,2.5,1.1,0,2.1-.2,3-.7l-.1,2c-1.1,.4-2.3,.6-3.4,.6-3.1,0-4.9-1.8-4.9-4.8,0-1.6,.6-3.2,1.7-4.4,1.2-1.3,2.5-1.8,4.3-1.8,2.5,0,4.1,1.6,4.1,4.2,0,.5-.1,1.2-.2,2h-7.4Zm5.2-2.2c0-1.4-.8-2.2-2-2.2-1.4,0-2.5,1-3,2.7h5v-.5Z"/><path d="M116.8,84c-.2,1-.4,1.9-.4,2.7h-2.3l.2-1.6c-.9,1.2-2.1,1.8-3.5,1.8-2.1,0-3.4-1.2-3.4-3,0-2.3,2.1-3.8,5.8-3.8,.4,0,1,0,1.8,.1v-.5c0-1.2-.8-1.9-2.2-1.9-1,0-2,.2-3.2,.8l.3-2c1.1-.4,2.2-.6,3.4-.6,2.7,0,4.1,1.3,4.1,3.4,0,.4-.1,.9-.2,1.5l-.4,3.1Zm-3.1-2.3c-2.4,0-3.6,.7-3.6,2,0,.8,.6,1.4,1.6,1.4,1.5,0,2.8-1.2,3.1-3.4h-1.1Z"/><path d="M126.9,78.6c-.9-.4-1.7-.7-2.6-.7-1.2,0-1.8,.5-1.8,1.2,0,.8,.8,1,2,1.7,1.5,.8,2.1,1.5,2.1,2.9,0,1.9-1.7,3.3-4.6,3.3-1.3,0-2.5-.2-3.6-.7l.6-2c.9,.5,1.7,.7,2.7,.7,1.4,0,2.2-.5,2.2-1.2s-.7-1-1.8-1.6c-1.5-.8-2.2-1.5-2.2-2.9,0-1.8,1.6-3.2,4.4-3.2,1.1,0,2.2,.2,3.3,.6l-.7,1.9Z"/><path d="M146.8,71.5l-3.2,15.2h-2.4l.4-1.7c-1,1.3-2.2,2-3.7,2-2.4,0-3.8-1.6-3.8-4.5,0-3.7,2.2-6.3,5.3-6.3,1.6,0,2.8,.7,3.4,2.1l1.4-6.8h2.6Zm-6.9,6.7c-1.6,0-3.1,1.8-3.1,4.4,0,1.4,.8,2.3,2.1,2.3,1.7,0,3.2-1.8,3.2-4.2,0-1.5-.9-2.5-2.2-2.5Z"/><path d="M149.1,82.2v.4c0,1.5,1.1,2.5,2.9,2.5,1.1,0,2.1-.2,3-.7l-.1,2c-1.1,.4-2.3,.6-3.4,.6-3.1,0-4.9-1.8-4.9-4.8,0-1.6,.6-3.2,1.7-4.4,1.2-1.3,2.5-1.8,4.3-1.8,2.5,0,4.1,1.6,4.1,4.2,0,.5-.1,1.2-.2,2h-7.4Zm5.3-2.2c0-1.4-.8-2.2-2-2.2-1.4,0-2.5,1-3,2.7h5v-.5Z"/><path d="M176.4,75.3c-1.1-.6-2.2-.9-3.4-.9-1.9,0-3.4,.6-4.5,1.9-.9,1-1.5,2.6-1.5,4,0,2.6,1.7,4.4,4.5,4.4,1,0,2-.2,3.1-.7l-.3,2.5c-1.2,.3-2.4,.5-3.5,.5-4.2,0-6.8-2.5-6.8-6.5,0-2.5,1.1-4.8,3.1-6.4,1.4-1.1,3.3-1.7,5.7-1.7,1.3,0,2.7,.3,4.2,.8l-.6,2.1Z"/><path d="M185.5,84c-.2,1-.4,1.9-.4,2.7h-2.3l.2-1.6c-.9,1.2-2.1,1.8-3.5,1.8-2.1,0-3.4-1.2-3.4-3,0-2.3,2.1-3.8,5.8-3.8,.4,0,1,0,1.8,.1v-.5c0-1.2-.8-1.9-2.2-1.9-1,0-2,.2-3.2,.8l.3-2c1.1-.4,2.2-.6,3.4-.6,2.7,0,4.1,1.3,4.1,3.4,0,.4-.1,.9-.2,1.5l-.4,3.1Zm-3.1-2.3c-2.4,0-3.6,.7-3.6,2,0,.8,.6,1.4,1.6,1.4,1.5,0,2.8-1.2,3.1-3.4h-1.1Z"/><path d="M197.4,86.7h-2.7l1.2-5.4c.1-.4,.1-.8,.1-1.2,0-1.1-.6-1.7-1.6-1.7-1.5,0-2.7,1.2-3.2,3.6l-1,4.7h-2.7l2.2-10.4h2.4l-.4,1.8c1.1-1.3,2.4-2,3.8-2,2,0,3.2,1.3,3.2,3.5,0,.6-.1,1.4-.3,2.3l-1,4.8Z"/><path d="M209.3,84c-.2,1-.4,1.9-.4,2.7h-2.3l.2-1.6c-.9,1.2-2.1,1.8-3.5,1.8-2.1,0-3.4-1.2-3.4-3,0-2.3,2.1-3.8,5.8-3.8,.4,0,1,0,1.8,.1v-.5c0-1.2-.8-1.9-2.2-1.9-1,0-2,.2-3.2,.8l.3-2c1.1-.4,2.2-.6,3.4-.6,2.7,0,4.1,1.3,4.1,3.4,0,.4-.1,.9-.2,1.5l-.4,3.1Zm-3.1-2.3c-2.4,0-3.6,.7-3.6,2,0,.8,.6,1.4,1.6,1.4,1.5,0,2.8-1.2,3.1-3.4h-1.1Z"/><path d="M219.4,78.7c-.5-.1-.9-.2-1.3-.2-1.8,0-2.6,1.1-3.1,3.5l-1,4.8h-2.7l2.1-10.4h2.5l-.4,1.8c1-1.3,2-2,3.3-2,.4,0,.8,.1,1.2,.2l-.6,2.3Z"/><path d="M224.3,76.4l-2.2,10.3h-2.6l2.2-10.3h2.6Zm-2.3-1.9l.5-2.7h2.7l-.5,2.7h-2.7Z"/><path d="M234.3,84c-.2,1-.4,1.9-.4,2.7h-2.3l.2-1.6c-.9,1.2-2.1,1.8-3.5,1.8-2.1,0-3.4-1.2-3.4-3,0-2.3,2.1-3.8,5.8-3.8,.4,0,1,0,1.8,.1v-.5c0-1.2-.8-1.9-2.2-1.9-1,0-2,.2-3.2,.8l.3-2c1.1-.4,2.2-.6,3.4-.6,2.7,0,4.1,1.3,4.1,3.4,0,.4-.1,.9-.2,1.5l-.4,3.1Zm-3.2-2.3c-2.4,0-3.6,.7-3.6,2,0,.8,.6,1.4,1.6,1.4,1.5,0,2.8-1.2,3.1-3.4h-1.1Z"/><path d="M244.3,78.6c-.9-.4-1.7-.7-2.6-.7-1.2,0-1.8,.5-1.8,1.2,0,.8,.8,1,2,1.7,1.5,.8,2.1,1.5,2.1,2.9,0,1.9-1.7,3.3-4.6,3.3-1.3,0-2.5-.2-3.6-.7l.6-2c.9,.5,1.7,.7,2.7,.7,1.4,0,2.2-.5,2.2-1.2s-.7-1-1.8-1.6c-1.5-.8-2.2-1.5-2.2-2.9,0-1.8,1.6-3.2,4.4-3.2,1.1,0,2.2,.2,3.3,.6l-.7,1.9Z"/></g><path d="M42.5,26.5c2.6,0,4.9-.7,6.8-2.2,1.9-1.4,2.9-3.6,2.9-6.4,0-2.6-.7-4.3-2.1-5.3-1.4-.9-3.2-1.4-5.5-1.4h-15.2l-3.2,15.3h16.3Zm-4.2,27.7c3.3,0,6-.9,8.1-2.6,2.1-1.8,3.1-4.4,3.1-7.9,0-1.7-.3-3-1.1-4-.7-1-1.6-1.7-2.7-2.2-1.1-.5-2.3-.8-3.6-1-1.4-.1-2.7-.2-3.9-.2h-14l-3.8,17.9h17.9ZM45.3,0c3.3,0,6.2,.2,8.9,.6,2.6,.4,4.8,1.2,6.7,2.3,1.8,1.1,3.2,2.7,4.2,4.7,1,2,1.5,4.5,1.5,7.6,0,1.8-.3,3.6-.8,5.4-.5,1.7-1.4,3.3-2.4,4.7-1.1,1.4-2.4,2.5-3.8,3.4-1.5,.9-3.2,1.5-5.2,1.7v.3c3.1,.8,5.5,2.5,7.2,4.9s2.5,5.2,2.5,8.4c0,3.5-.7,6.7-2.1,9.3-1.4,2.7-3.2,4.9-5.5,6.7-2.3,1.8-5,3.1-7.9,4-3,.9-6.1,1.4-9.4,1.4H4.2L17.8,.1h27.5v-.1Z"/><path d="M88.4,18.1l-10,47.3h-13l9.9-47.3h13.1Z"/><path d="M107.2,18.1l-1.5,6.6h.2c4.2-5.2,9.7-7.9,16.6-7.9,9.2,0,13.8,4.2,13.8,12.7,0,.5-.1,1.1-.2,1.9-.1,.8-.3,1.5-.4,2.3-.2,.8-.3,1.5-.5,2.2-.1,.7-.3,1.3-.3,1.7l-5.8,27.7h-13l5.8-27.7c.1-.7,.3-1.7,.5-2.9s.3-2.2,.3-2.8c0-1.4-.7-2.6-2-3.5s-2.7-1.4-4.3-1.4c-1.9,0-3.7,.4-5.2,1.1-1.5,.8-2.8,1.7-3.8,3-1.1,1.2-1.9,2.6-2.6,4.2-.7,1.6-1.2,3.2-1.6,4.8l-5.3,25.1h-12.9l9.8-47.3h12.4v.2Z"/><path d="M171,18.1l-2,8.7h-9.2l-4.8,23.5-.3,1.3-.1,.9c0,.9,.2,1.5,.4,2l1,1,1.4,.4,1.5,.1c1.6,0,3.1-.1,4.7-.3l-2.2,9.9c-1.3,.1-2.7,.2-4,.3-1.3,.1-2.7,.1-4.1,.1-1.5,0-3-.1-4.5-.4s-2.8-.8-4-1.5-2.1-1.7-2.8-2.9c-.7-1.2-1-2.8-1-4.8,0-.6,.1-1.3,.2-2.1,.1-.8,.3-1.6,.5-2.4l5.3-25.3h-8.5l2-8.7h8.3l2.8-14.2h13l-3,14.4h9.4Z"/><path d="M204.2,33.1c-.2-1.2-.6-2.3-1.2-3.2-.6-1-1.5-1.8-2.7-2.3-1.2-.6-2.7-.9-4.6-.9-1.8,0-3.5,.3-4.8,.8-1.4,.6-2.6,1.3-3.7,2.2-1,.9-1.9,2-2.6,3.2-.7,1.2-1.3,2.5-1.8,3.8h21.7c0-1.3-.1-2.5-.3-3.6m-22.8,12.6v1.9c0,2.7,.9,5,2.6,6.7,1.7,1.7,4.3,2.6,7.9,2.6,1.3,0,2.4-.2,3.4-.6s1.9-.9,2.7-1.5,1.4-1.3,2-2.1c.6-.8,1.1-1.6,1.6-2.3h13c-1,2.7-2.3,5-3.7,7s-3.1,3.7-5,5.1-4.2,2.4-6.8,3.1-5.6,1-9,1c-3.2,0-6-.4-8.6-1.3s-4.8-2.2-6.6-3.9c-1.8-1.7-3.2-3.9-4.3-6.4-1-2.6-1.5-5.5-1.5-9,0-3.8,.6-7.4,1.8-10.9s2.9-6.6,5.2-9.3c2.2-2.7,4.9-4.9,8.2-6.5,3.2-1.6,6.9-2.4,10.9-2.4,3.3,0,6.3,.4,9,1.3,2.7,.9,5,2.2,7,3.9,1.9,1.7,3.4,3.9,4.5,6.5s1.6,5.6,1.6,9c0,2.3-.2,4.8-.7,7.4h-34.8l-.4,.7Z"/><path d="M239,18.1l-1.9,8.5,.2,.2c1.5-3.3,3.7-5.8,6.6-7.5,2.9-1.7,6.2-2.5,9.6-2.5,1.3,0,2.7,.1,4,.3l-2.6,12.6-2.7-.6c-.9-.2-1.8-.3-2.7-.3-2.5,0-4.6,.4-6.4,1.3-1.8,.9-3.2,2-4.4,3.5s-2.1,3.1-2.8,5-1.3,3.8-1.7,5.8l-4.4,20.9h-12.9l9.8-47.3h12.3v.1Z"/><polygon points="76.8 10.7 79.2 0 92.3 0 89.9 10.7 76.8 10.7"/></g></g></svg>