<svg width="124.575" height="9" viewBox="0 0 124.575 9" xmlns="http://www.w3.org/2000/svg"><g fill="#fff" stroke="#fff"><path d="M2.66 5.426L.933 1.26c-.074-.18-.197-.229-.344-.229-.18 0-.376.123-.376.368 0 .05.016.099.04.164l2.071 4.828c.057.14.164.221.336.221a.334.334 0 00.335-.22l2.07-4.829a.477.477 0 00.041-.164c0-.245-.196-.368-.376-.368-.147 0-.27.05-.344.23zM5.442 3.314v1.67c0 .965.54 1.66 1.481 1.66.54 0 .95-.245 1.178-.687v.262c0 .27.172.393.385.393.221 0 .385-.147.385-.393V3.314a.374.374 0 00-.385-.384.38.38 0 00-.385.384v1.629c0 .556-.351 1.006-.965 1.006s-.925-.425-.925-.998V3.314a.374.374 0 00-.384-.384c-.246 0-.385.18-.385.384zM11.702 2.897c-1.055 0-1.833.802-1.833 1.874 0 1.023.647 1.874 1.866 1.874.59 0 1.146-.237 1.457-.598a.341.341 0 00.098-.22.31.31 0 00-.32-.32.375.375 0 00-.253.123c-.27.254-.524.401-.95.401-.679 0-1.063-.425-1.104-.99h2.447c.22 0 .294-.131.294-.262 0-1.047-.67-1.882-1.702-1.882zm.99 1.522H10.68c.074-.507.459-.908 1.023-.908.557 0 .925.417.99.908zM15.18 6.228V1.416a.374.374 0 00-.385-.385.374.374 0 00-.384.385v4.812c0 .212.155.384.384.384.23 0 .385-.172.385-.384zM19.468 6.228V4.444c0-.999-.605-1.547-1.686-1.547-.368 0-.81.065-1.096.18-.205.082-.36.18-.36.368 0 .18.122.32.327.32.09 0 .18-.042.254-.066.229-.082.466-.147.81-.147.712 0 .982.294.982.94v.353a1.605 1.605 0 00-1.105-.418c-.794 0-1.391.385-1.391 1.113 0 .655.565 1.105 1.358 1.105.524 0 .909-.18 1.154-.491v.074c0 .212.148.384.377.384.253 0 .376-.172.376-.384zm-.77-.688c0 .344-.408.581-.891.581-.491 0-.835-.213-.835-.58 0-.37.336-.582.851-.582.434 0 .876.213.876.581zM22.782 4.77c0 1.09.77 1.875 1.71 1.875.549 0 1.04-.278 1.285-.704v.278c0 .213.14.393.377.393s.368-.172.368-.384V1.416a.374.374 0 00-.384-.385.374.374 0 00-.385.385V3.6a1.472 1.472 0 00-1.26-.704c-.941 0-1.71.745-1.71 1.874zm.77 0c0-.736.433-1.235 1.096-1.235s1.105.581 1.105 1.236-.442 1.236-1.105 1.236-1.096-.5-1.096-1.236zM29.354 2.897c-1.056 0-1.833.802-1.833 1.874 0 1.023.646 1.874 1.865 1.874.59 0 1.146-.237 1.457-.598a.341.341 0 00.098-.22.31.31 0 00-.319-.32.375.375 0 00-.254.123c-.27.254-.523.401-.949.401-.68 0-1.064-.425-1.105-.99h2.447c.221 0 .295-.131.295-.262 0-1.047-.671-1.882-1.702-1.882zm.99 1.522H28.33c.073-.507.458-.908 1.023-.908.556 0 .924.417.99.908zM37.496 6.228V4.444c0-.999-.606-1.547-1.686-1.547-.368 0-.81.065-1.096.18-.205.082-.36.18-.36.368 0 .18.122.32.327.32.09 0 .18-.042.254-.066.229-.082.466-.147.81-.147.712 0 .982.294.982.94v.353a1.605 1.605 0 00-1.105-.418c-.794 0-1.391.385-1.391 1.113 0 .655.564 1.105 1.358 1.105.524 0 .909-.18 1.154-.491v.074c0 .212.147.384.377.384.253 0 .376-.172.376-.384zm-.77-.688c0 .344-.408.581-.891.581-.491 0-.835-.213-.835-.58 0-.37.336-.582.851-.582.434 0 .876.213.876.581zM42.406 4.77c0-1.128-.77-1.873-1.71-1.873-.549 0-.999.286-1.26.704V1.416a.374.374 0 00-.385-.385.374.374 0 00-.385.385v4.812c0 .212.131.384.368.384.238 0 .377-.18.377-.393v-.278c.245.426.736.704 1.285.704.94 0 1.71-.786 1.71-1.874zm-.77 0c0 .737-.433 1.237-1.096 1.237s-1.105-.581-1.105-1.236.442-1.236 1.105-1.236 1.097.5 1.097 1.236zM45.573 3.273c0-.204-.14-.36-.36-.36-.516 0-.9.295-1.04.761v-.352c0-.237-.155-.392-.376-.392a.378.378 0 00-.393.392v2.906c0 .212.14.384.385.384a.38.38 0 00.385-.384V4.885c0-.826.392-1.252 1.039-1.252.204 0 .36-.155.36-.36zM47.054 6.228V3.314a.38.38 0 00-.385-.384.38.38 0 00-.384.384v2.914c0 .212.155.384.384.384.23 0 .385-.172.385-.384zm-.835-4.305c0 .246.205.45.45.45.246 0 .45-.204.45-.45a.454.454 0 00-.45-.45.454.454 0 00-.45.45zM49.05 6.228V1.416a.374.374 0 00-.384-.385.374.374 0 00-.384.385v4.812c0 .212.155.384.384.384.23 0 .385-.172.385-.384zM55.712 6.228V4.444c0-.999-.606-1.547-1.686-1.547-.368 0-.81.065-1.096.18-.205.082-.36.18-.36.368 0 .18.122.32.327.32.09 0 .18-.042.254-.066.229-.082.466-.147.81-.147.712 0 .982.294.982.94v.353a1.605 1.605 0 00-1.105-.418c-.794 0-1.391.385-1.391 1.113 0 .655.565 1.105 1.358 1.105.524 0 .909-.18 1.154-.491v.074c0 .212.147.384.377.384.253 0 .376-.172.376-.384zm-.77-.688c0 .344-.408.581-.891.581-.491 0-.835-.213-.835-.58 0-.37.336-.582.851-.582.434 0 .876.213.876.581zM60.025 6.809V3.314a.38.38 0 00-.385-.384.38.38 0 00-.385.384v3.544c0 .433-.122.646-.597.646h-.016a.31.31 0 00-.32.32c0 .18.14.318.32.318h.09c.957 0 1.293-.474 1.293-1.333zm-.835-4.886c0 .246.205.45.45.45.246 0 .45-.204.45-.45a.454.454 0 00-.45-.45.454.454 0 00-.45.45zM61.211 3.314v1.67c0 .965.54 1.66 1.481 1.66.54 0 .95-.245 1.179-.687v.262c0 .27.172.393.384.393.221 0 .385-.147.385-.393V3.314a.374.374 0 00-.385-.384.38.38 0 00-.384.384v1.629c0 .556-.352 1.006-.966 1.006s-.925-.425-.925-.998V3.314a.374.374 0 00-.384-.384c-.246 0-.385.18-.385.384zM69.296 6.228v-1.67c0-.966-.54-1.661-1.48-1.661-.54 0-.95.245-1.18.687v-.262c0-.27-.171-.392-.384-.392-.22 0-.384.147-.384.392v2.906c0 .212.155.384.384.384a.38.38 0 00.385-.384V4.599c0-.556.352-1.007.965-1.007.614 0 .925.426.925.999v1.637c0 .212.156.384.385.384.245 0 .384-.18.384-.384zM71.252 6.228V3.314a.38.38 0 00-.384-.384.38.38 0 00-.385.384v2.914c0 .212.155.384.385.384.229 0 .384-.172.384-.384zm-.835-4.305c0 .246.205.45.45.45.246 0 .45-.204.45-.45a.454.454 0 00-.45-.45.454.454 0 00-.45.45zM75.999 4.77c0-1.03-.737-1.873-1.874-1.873-1.138 0-1.874.843-1.874 1.874 0 1.031.736 1.874 1.874 1.874 1.137 0 1.874-.843 1.874-1.874zm-.77 0c0 .664-.384 1.22-1.104 1.22-.72 0-1.105-.556-1.105-1.22 0-.662.384-1.218 1.105-1.218.72 0 1.104.556 1.104 1.219z" stroke-width=".00818"/></g></svg>