<svg width="194.998" height="9" viewBox="0 0 194.998 9" xmlns="http://www.w3.org/2000/svg"><g fill="#fff" stroke="#fff"><path d="M1.416 4.558c-.017-.106-.066-.188-.189-.188-.122 0-.18.082-.196.188L.843 5.982v1.776c0 .213.155.384.384.384.23 0 .385-.171.385-.384V5.982zm-.68-1.17c0 .27.221.49.491.49s.491-.22.491-.49-.22-.491-.49-.491-.492.22-.492.49zM7.218 5.098c0-.933-.729-1.285-2.038-1.694-.941-.294-1.342-.466-1.342-.949 0-.532.516-.761 1.317-.761.54 0 .999.172 1.4.4.04.025.098.042.155.042.23 0 .336-.164.336-.352 0-.254-.385-.45-.663-.557A3.52 3.52 0 005.147.998c-1.227 0-2.095.491-2.095 1.473 0 .77.459 1.22 1.915 1.653.982.295 1.465.467 1.465 1.015 0 .467-.425.818-1.293.818-.67 0-1.088-.22-1.538-.507-.099-.057-.18-.098-.279-.098-.188 0-.335.114-.335.319 0 .14.09.27.213.368.474.369 1.21.606 1.93.606 1.368 0 2.088-.671 2.088-1.547zM11.776 4.77c0-1.03-.737-1.873-1.874-1.873-1.138 0-1.874.843-1.874 1.874 0 1.031.736 1.874 1.874 1.874 1.137 0 1.874-.843 1.874-1.874zm-.77 0c0 .664-.384 1.22-1.104 1.22-.72 0-1.105-.556-1.105-1.22 0-.662.385-1.218 1.105-1.218s1.105.556 1.105 1.219zM13.543 6.228V1.416a.374.374 0 00-.384-.385.374.374 0 00-.385.385v4.812c0 .212.156.384.385.384s.384-.172.384-.384zM18.29 4.77c0-1.03-.737-1.873-1.874-1.873-1.138 0-1.874.843-1.874 1.874 0 1.031.736 1.874 1.874 1.874 1.137 0 1.874-.843 1.874-1.874zm-.77 0c0 .664-.384 1.22-1.104 1.22-.72 0-1.105-.556-1.105-1.22 0-.662.385-1.218 1.105-1.218s1.104.556 1.104 1.219zM25.09 6.228v-1.67c0-.966-.54-1.661-1.481-1.661-.54 0-.95.245-1.179.687v-2.16c0-.27-.171-.393-.384-.393-.221 0-.385.147-.385.393v4.804c0 .212.156.384.385.384a.38.38 0 00.384-.384V4.599c0-.556.352-1.007.966-1.007s.925.426.925.999v1.637c0 .212.155.384.384.384.246 0 .385-.18.385-.384zM29.337 6.228V4.444c0-.999-.605-1.547-1.686-1.547-.368 0-.81.065-1.096.18-.205.082-.36.18-.36.368 0 .18.123.32.327.32.09 0 .18-.042.254-.066.229-.082.466-.147.81-.147.712 0 .982.294.982.94v.353a1.605 1.605 0 00-1.105-.418c-.794 0-1.39.385-1.39 1.113 0 .655.564 1.105 1.357 1.105.524 0 .909-.18 1.154-.491v.074c0 .212.148.384.377.384.253 0 .376-.172.376-.384zm-.769-.688c0 .344-.41.581-.892.581-.491 0-.835-.213-.835-.58 0-.37.336-.582.851-.582.434 0 .876.213.876.581zM33.33 5.597c0-.662-.458-.9-1.341-1.153-.59-.172-.835-.262-.835-.54 0-.287.278-.393.687-.393.295 0 .549.065.778.188.122.065.229.114.335.114.213 0 .295-.139.295-.286 0-.164-.156-.295-.377-.401a2.419 2.419 0 00-1.014-.23c-.884 0-1.449.402-1.449 1.016 0 .589.368.933 1.375 1.203.573.155.802.261.802.54 0 .253-.237.417-.68.417-.392 0-.703-.155-.924-.32a.475.475 0 00-.303-.114c-.163 0-.294.107-.294.27 0 .107.049.23.163.32.328.253.786.417 1.301.417.974 0 1.482-.442 1.482-1.048zM35.467 6.228V3.633h.703c.18 0 .32-.139.32-.319s-.14-.319-.32-.319h-.703V1.923a.374.374 0 00-.385-.385.374.374 0 00-.385.385v1.072h-.622c-.18 0-.319.14-.319.32s.14.318.32.318h.621v2.595c0 .212.156.384.385.384s.385-.172.385-.384zM40.164 6.228V4.444c0-.999-.606-1.547-1.686-1.547-.368 0-.81.065-1.097.18-.204.082-.36.18-.36.368 0 .18.123.32.328.32.09 0 .18-.042.253-.066.23-.082.467-.147.81-.147.712 0 .983.294.983.94v.353a1.605 1.605 0 00-1.105-.418c-.794 0-1.391.385-1.391 1.113 0 .655.564 1.105 1.358 1.105.524 0 .908-.18 1.154-.491v.074c0 .212.147.384.376.384.254 0 .377-.172.377-.384zm-.77-.688c0 .344-.409.581-.891.581-.491 0-.835-.213-.835-.58 0-.37.335-.582.85-.582.435 0 .877.213.877.581zM45.311 2.897c-1.056 0-1.833.802-1.833 1.874 0 1.023.646 1.874 1.866 1.874.589 0 1.145-.237 1.456-.598a.341.341 0 00.099-.22.31.31 0 00-.32-.32.375.375 0 00-.253.123c-.27.254-.524.401-.95.401-.679 0-1.063-.425-1.104-.99h2.447c.22 0 .294-.131.294-.262 0-1.047-.67-1.882-1.702-1.882zm.99 1.522h-2.013c.074-.507.458-.908 1.023-.908.557 0 .925.417.99.908zM48.789 6.228V1.416a.374.374 0 00-.385-.385.374.374 0 00-.384.385v4.812c0 .212.155.384.384.384.23 0 .385-.172.385-.384zM54.198 6.228V1.424c0-.254-.155-.393-.376-.393a.495.495 0 00-.18.033l-1.383.425c-.172.05-.279.148-.279.336 0 .22.197.352.385.352a.41.41 0 00.098-.017l.966-.294v4.362c0 .212.155.384.385.384.229 0 .384-.172.384-.384zM59.804 4.877c0-1.014-.737-1.71-1.915-1.71-.614 0-1.228.205-1.588.745.278-1.089 1.154-1.793 2.062-2.292.164-.09.238-.188.238-.327 0-.156-.115-.295-.328-.295-.09 0-.155.025-.245.058-1.154.45-2.52 1.775-2.52 3.568 0 1.145.752 2.02 2.193 2.02 1.3 0 2.103-.76 2.103-1.767zm-.77.008c0 .622-.49 1.113-1.325 1.113-.827 0-1.334-.425-1.334-1.096 0-.688.646-1.089 1.367-1.089.769 0 1.292.401 1.292 1.072zM62.954 4.77c0 1.09.77 1.875 1.71 1.875.549 0 1.04-.278 1.285-.704v.278c0 .213.14.393.377.393s.368-.172.368-.384V1.416a.374.374 0 00-.385-.385.374.374 0 00-.384.385V3.6a1.472 1.472 0 00-1.26-.704c-.941 0-1.71.745-1.71 1.874zm.77 0c0-.736.433-1.235 1.096-1.235s1.105.581 1.105 1.236-.442 1.236-1.105 1.236-1.096-.5-1.096-1.236zM69.526 2.897c-1.056 0-1.834.802-1.834 1.874 0 1.023.647 1.874 1.866 1.874.59 0 1.146-.237 1.457-.598a.341.341 0 00.098-.22.31.31 0 00-.32-.32.375.375 0 00-.253.123c-.27.254-.523.401-.949.401-.68 0-1.064-.425-1.105-.99h2.447c.221 0 .295-.131.295-.262 0-1.047-.671-1.882-1.702-1.882zm.99 1.522h-2.013c.073-.507.458-.908 1.023-.908.556 0 .924.417.99.908zM76.211 2.897c-1.055 0-1.833.802-1.833 1.874 0 1.023.647 1.874 1.866 1.874.59 0 1.146-.237 1.457-.598a.341.341 0 00.098-.22.31.31 0 00-.32-.32.375.375 0 00-.253.123c-.27.254-.524.401-.95.401-.678 0-1.063-.425-1.104-.99h2.447c.22 0 .294-.131.294-.262 0-1.047-.67-1.882-1.702-1.882zm.99 1.522h-2.013c.074-.507.459-.908 1.023-.908.557 0 .925.417.99.908zM82.349 6.228v-1.67c0-.966-.54-1.661-1.481-1.661-.54 0-.95.245-1.179.687v-.262c0-.27-.172-.392-.384-.392-.221 0-.385.147-.385.392v2.906c0 .212.155.384.385.384a.38.38 0 00.384-.384V4.599c0-.556.352-1.007.966-1.007s.925.426.925.999v1.637c0 .212.155.384.384.384.246 0 .385-.18.385-.384zM85.14 2.897c-1.056 0-1.834.802-1.834 1.874 0 1.023.647 1.874 1.866 1.874.59 0 1.146-.237 1.457-.598a.341.341 0 00.098-.22.31.31 0 00-.32-.32.375.375 0 00-.253.123c-.27.254-.524.401-.95.401-.678 0-1.063-.425-1.104-.99h2.447c.22 0 .294-.131.294-.262 0-1.047-.67-1.882-1.702-1.882zm.99 1.522h-2.014c.074-.507.459-.908 1.023-.908.557 0 .925.417.99.908zM90.017 3.273c0-.204-.14-.36-.36-.36-.516 0-.9.295-1.04.761v-.352c0-.237-.155-.392-.376-.392a.378.378 0 00-.393.392v2.906c0 .212.14.384.385.384a.38.38 0 00.384-.384V4.885c0-.826.393-1.252 1.04-1.252.204 0 .36-.155.36-.36zM94.14 4.77c0-1.03-.736-1.873-1.873-1.873-1.138 0-1.874.843-1.874 1.874 0 1.031.736 1.874 1.874 1.874 1.137 0 1.874-.843 1.874-1.874zm-.768 0c0 .664-.385 1.22-1.105 1.22s-1.105-.556-1.105-1.22c0-.662.385-1.218 1.105-1.218s1.105.556 1.105 1.219zM96.138 3.527V1.416a.374.374 0 00-.385-.385.374.374 0 00-.385.385v2.111l.189 1.424c.016.106.073.188.196.188.123 0 .172-.082.188-.188zm-.876 2.594c0 .27.221.491.491.491s.491-.22.491-.49-.22-.492-.49-.492c-.271 0-.492.221-.492.491z" stroke-width=".00818"/></g></svg>