<svg version="1.1" id="Capa_2_00000147179842577395941030000013292090541377395894_" xmlns="http://www.w3.org/2000/svg" xmlns:xlink="http://www.w3.org/1999/xlink" x="0px" y="0px" viewBox="0 0 257.5 66.7" style="enable-background:new 0 0 257.5 66.7;" xml:space="preserve" width="100%" height="100%" preserveAspectRatio="none" fill="#ffffff" data-color-group="0"><path d="M42.5,26.5c2.6,0,4.9-0.7,6.8-2.2c1.9-1.4,2.9-3.6,2.9-6.4c0-2.6-0.7-4.3-2.1-5.3c-1.4-0.9-3.2-1.4-5.5-1.4H29.4l-3.2,15.3 H42.5z M38.3,54.2c3.3,0,6-0.9,8.1-2.6c2.1-1.8,3.1-4.4,3.1-7.9c0-1.7-0.3-3-1.1-4c-0.7-1-1.6-1.7-2.7-2.2c-1.1-0.5-2.3-0.8-3.6-1 c-1.4-0.1-2.7-0.2-3.9-0.2h-14l-3.8,17.9C20.4,54.2,38.3,54.2,38.3,54.2z M45.3,0c3.3,0,6.2,0.2,8.9,0.6C56.8,1,59,1.8,60.9,2.9 c1.8,1.1,3.2,2.7,4.2,4.7s1.5,4.5,1.5,7.6c0,1.8-0.3,3.6-0.8,5.4c-0.5,1.7-1.4,3.3-2.4,4.7c-1.1,1.4-2.4,2.5-3.8,3.4 c-1.5,0.9-3.2,1.5-5.2,1.7v0.3c3.1,0.8,5.5,2.5,7.2,4.9s2.5,5.2,2.5,8.4c0,3.5-0.7,6.7-2.1,9.3c-1.4,2.7-3.2,4.9-5.5,6.7 s-5,3.1-7.9,4c-3,0.9-6.1,1.4-9.4,1.4h-35L17.8,0.1h27.5V0z"/><path d="M88.4,18.1l-10,47.3h-13l9.9-47.3C75.3,18.1,88.4,18.1,88.4,18.1z"/><path d="M107.2,18.1l-1.5,6.6h0.2c4.2-5.2,9.7-7.9,16.6-7.9c9.2,0,13.8,4.2,13.8,12.7c0,0.5-0.1,1.1-0.2,1.9 c-0.1,0.8-0.3,1.5-0.4,2.3c-0.2,0.8-0.3,1.5-0.5,2.2c-0.1,0.7-0.3,1.3-0.3,1.7l-5.8,27.7h-13l5.8-27.7c0.1-0.7,0.3-1.7,0.5-2.9 s0.3-2.2,0.3-2.8c0-1.4-0.7-2.6-2-3.5S118,27,116.4,27c-1.9,0-3.7,0.4-5.2,1.1c-1.5,0.8-2.8,1.7-3.8,3c-1.1,1.2-1.9,2.6-2.6,4.2 s-1.2,3.2-1.6,4.8l-5.3,25.1H85l9.8-47.3h12.4C107.2,17.9,107.2,18.1,107.2,18.1z"/><path d="M171,18.1l-2,8.7h-9.2L155,50.3l-0.3,1.3l-0.1,0.9c0,0.9,0.2,1.5,0.4,2l1,1l1.4,0.4l1.5,0.1c1.6,0,3.1-0.1,4.7-0.3l-2.2,9.9 c-1.3,0.1-2.7,0.2-4,0.3c-1.3,0.1-2.7,0.1-4.1,0.1c-1.5,0-3-0.1-4.5-0.4s-2.8-0.8-4-1.5s-2.1-1.7-2.8-2.9s-1-2.8-1-4.8 c0-0.6,0.1-1.3,0.2-2.1c0.1-0.8,0.3-1.6,0.5-2.4l5.3-25.3h-8.5l2-8.7h8.3l2.8-14.2h13l-3,14.4L171,18.1L171,18.1z"/><path d="M204.2,33.1c-0.2-1.2-0.6-2.3-1.2-3.2c-0.6-1-1.5-1.8-2.7-2.3c-1.2-0.6-2.7-0.9-4.6-0.9c-1.8,0-3.5,0.3-4.8,0.8 c-1.4,0.6-2.6,1.3-3.7,2.2c-1,0.9-1.9,2-2.6,3.2c-0.7,1.2-1.3,2.5-1.8,3.8h21.7C204.5,35.4,204.4,34.2,204.2,33.1 M181.4,45.7v1.9 c0,2.7,0.9,5,2.6,6.7c1.7,1.7,4.3,2.6,7.9,2.6c1.3,0,2.4-0.2,3.4-0.6s1.9-0.9,2.7-1.5s1.4-1.3,2-2.1s1.1-1.6,1.6-2.3h13 c-1,2.7-2.3,5-3.7,7s-3.1,3.7-5,5.1s-4.2,2.4-6.8,3.1s-5.6,1-9,1c-3.2,0-6-0.4-8.6-1.3s-4.8-2.2-6.6-3.9s-3.2-3.9-4.3-6.4 c-1-2.6-1.5-5.5-1.5-9c0-3.8,0.6-7.4,1.8-10.9s2.9-6.6,5.2-9.3c2.2-2.7,4.9-4.9,8.2-6.5c3.2-1.6,6.9-2.4,10.9-2.4 c3.3,0,6.3,0.4,9,1.3s5,2.2,7,3.9c1.9,1.7,3.4,3.9,4.5,6.5s1.6,5.6,1.6,9c0,2.3-0.2,4.8-0.7,7.4h-34.8L181.4,45.7L181.4,45.7z"/><path d="M239,18.1l-1.9,8.5l0.2,0.2c1.5-3.3,3.7-5.8,6.6-7.5c2.9-1.7,6.2-2.5,9.6-2.5c1.3,0,2.7,0.1,4,0.3l-2.6,12.6 c-0.9-0.2-1.8-0.4-2.7-0.6s-1.8-0.3-2.7-0.3c-2.5,0-4.6,0.4-6.4,1.3c-1.8,0.9-3.2,2-4.4,3.5s-2.1,3.1-2.8,5s-1.3,3.8-1.7,5.8 l-4.4,20.9h-12.9l9.8-47.3H239V18.1L239,18.1z"/><polygon points="76.8,10.7 79.2,0 92.3,0 89.9,10.7 "/></svg>