<svg width="24.911" height="10" viewBox="0 0 24.911 10" xmlns="http://www.w3.org/2000/svg"><g fill="#47A01A" stroke="#fff"><path d="M1.376 4.287h1.828c.133 0 .24-.106.24-.24a.239.239 0 00-.24-.24H1.376V1.67h3.15c.134 0 .24-.107.24-.24a.239.239 0 00-.24-.24H1.11a.262.262 0 00-.266.267v5.379c0 .15.116.266.266.266h3.427c.133 0 .24-.107.24-.24a.239.239 0 00-.24-.24h-3.16zM8.406 7.207c1.544 0 2.494-.95 2.494-2.432v-3.39a.262.262 0 00-.267-.267.262.262 0 00-.266.267V4.81c0 1.154-.595 1.926-1.961 1.926-1.367 0-1.962-.772-1.962-1.926V1.385a.262.262 0 00-.266-.267.262.262 0 00-.267.267v3.39c0 1.483.95 2.432 2.495 2.432zM17.157 2.831c0-.94-.648-1.642-1.82-1.642H12.79a.267.267 0 00-.266.267v5.45c0 .15.115.266.266.266.16 0 .267-.116.267-.266V4.473h2.192L16.5 7.021c.054.098.116.15.249.15.15 0 .257-.123.257-.257a.289.289 0 00-.035-.124l-1.154-2.36c.87-.16 1.34-.79 1.34-1.599zm-.532 0c0 .675-.444 1.163-1.18 1.163h-2.388V1.67h2.387c.737 0 1.18.488 1.18 1.162z" stroke-width=".00888"/></g></svg>