<svg width="31.746" height="13" viewBox="0 0 31.746 13" xmlns="http://www.w3.org/2000/svg"><g fill="#47A01A" stroke="#47A01A"><path d="M1.527 4.047V1.811a.31.31 0 00-.32-.32.31.31 0 00-.32.32v2.236c0 .166.119.32.32.32a.31.31 0 00.32-.32zM5.539 9.207V1.858c0-.225-.13-.367-.344-.367-.059 0-.153.024-.236.048l-1.941.603c-.154.047-.272.142-.272.331 0 .19.165.32.331.32.036 0 .083-.012.13-.024l1.622-.497v6.935c0 .19.142.355.355.355a.349.349 0 00.355-.355zM13.491 7.03c0-1.574-1.171-2.497-2.828-2.497-.793 0-1.538.213-2.024.627L9.125 2.2h3.396c.19 0 .32-.142.32-.307a.308.308 0 00-.32-.308H8.864c-.19 0-.32.106-.355.296l-.603 3.775c-.024.166.07.355.32.355a.422.422 0 00.271-.095c.675-.568 1.326-.78 2.142-.78 1.255 0 2.142.697 2.142 1.916 0 1.113-.84 1.953-2.296 1.953-1.005 0-1.727-.26-2.45-.876a.34.34 0 00-.212-.082c-.178 0-.332.118-.332.307 0 .107.06.178.13.249.699.65 1.657 1.018 2.864 1.018 1.882 0 3.006-1.16 3.006-2.592z" stroke-width=".01183"/></g></svg>