<svg width="182.444" height="13" viewBox="0 0 182.444 13" xmlns="http://www.w3.org/2000/svg"><g fill="#fff" stroke="#fff"><path d="M3.813 7.78L1.338 1.806c-.106-.258-.282-.329-.493-.329-.258 0-.54.176-.54.528 0 .07.024.141.059.235l2.968 6.923c.082.2.235.317.481.317a.478.478 0 00.481-.317L7.263 2.24a.684.684 0 00.059-.235c0-.352-.282-.528-.54-.528-.211 0-.387.07-.493.329zM7.803 4.752v2.394c0 1.384.774 2.381 2.123 2.381.775 0 1.362-.352 1.69-.985v.375c0 .388.246.564.552.564.316 0 .551-.212.551-.564V4.752a.536.536 0 00-.551-.551.543.543 0 00-.552.551v2.335c0 .798-.504 1.443-1.385 1.443-.88 0-1.325-.61-1.325-1.431V4.752a.536.536 0 00-.552-.551c-.352 0-.551.258-.551.551zM16.779 4.154c-1.514 0-2.629 1.15-2.629 2.687 0 1.466.927 2.686 2.676 2.686.844 0 1.642-.34 2.088-.856a.49.49 0 00.141-.317.444.444 0 00-.458-.457c-.14 0-.27.082-.363.176-.388.363-.751.574-1.361.574-.974 0-1.526-.61-1.584-1.42h3.508c.317 0 .422-.187.422-.375 0-1.502-.962-2.698-2.44-2.698zm1.42 2.182h-2.887c.106-.727.657-1.302 1.467-1.302.798 0 1.326.598 1.42 1.302zM21.765 8.93v-6.9a.536.536 0 00-.551-.552.536.536 0 00-.552.552v6.9c0 .304.223.55.552.55a.536.536 0 00.551-.55zM28.57 6.84c0-1.478-1.055-2.686-2.686-2.686s-2.687 1.208-2.687 2.687c0 1.478 1.056 2.686 2.687 2.686 1.63 0 2.687-1.208 2.687-2.686zm-1.102 0c0 .951-.552 1.749-1.584 1.749-1.033 0-1.584-.798-1.584-1.748s.551-1.749 1.584-1.749c1.032 0 1.584.798 1.584 1.749zM34.015 8.026c0-.95-.657-1.291-1.924-1.655-.845-.246-1.197-.375-1.197-.774 0-.41.399-.563.986-.563.422 0 .786.093 1.114.27.176.093.329.164.481.164.305 0 .423-.2.423-.41 0-.236-.223-.423-.54-.576a3.468 3.468 0 00-1.455-.328c-1.267 0-2.077.575-2.077 1.455 0 .844.528 1.337 1.971 1.724.822.223 1.15.376 1.15.775 0 .363-.34.598-.974.598-.563 0-1.009-.223-1.325-.457-.13-.094-.247-.165-.435-.165-.234 0-.422.153-.422.387 0 .153.07.329.235.458.469.364 1.126.598 1.865.598 1.397 0 2.124-.633 2.124-1.501zM38.462 6.84c0 1.561 1.103 2.687 2.452 2.687.786 0 1.49-.398 1.842-1.009v.4c0 .304.2.563.54.563s.528-.247.528-.552v-6.9a.536.536 0 00-.551-.55.536.536 0 00-.552.55v3.134a2.11 2.11 0 00-1.807-1.01c-1.35 0-2.452 1.068-2.452 2.688zm1.103 0c0-1.055.622-1.771 1.572-1.771.95 0 1.584.833 1.584 1.772 0 .938-.633 1.771-1.584 1.771-.95 0-1.572-.715-1.572-1.771zM46.687 8.93V4.751a.543.543 0 00-.551-.551.543.543 0 00-.552.551v4.177c0 .305.223.552.552.552a.536.536 0 00.551-.552zM45.49 2.756c0 .352.294.646.646.646a.651.651 0 00.645-.646.651.651 0 00-.645-.645.651.651 0 00-.646.645zM51.556 4.693c0-.293-.199-.516-.516-.516-.739 0-1.29.422-1.49 1.091v-.504c0-.34-.223-.563-.54-.563a.542.542 0 00-.563.563v4.165c0 .305.2.552.552.552a.543.543 0 00.551-.552V7.005c0-1.185.563-1.795 1.49-1.795a.506.506 0 00.516-.517zM54.701 4.154c-1.514 0-2.628 1.15-2.628 2.687 0 1.466.927 2.686 2.675 2.686.845 0 1.643-.34 2.088-.856a.49.49 0 00.141-.317.444.444 0 00-.457-.457c-.141 0-.27.082-.364.176-.387.363-.751.574-1.361.574-.974 0-1.525-.61-1.584-1.42h3.508c.317 0 .423-.187.423-.375 0-1.502-.963-2.698-2.441-2.698zm1.42 2.182h-2.887c.106-.727.657-1.302 1.467-1.302.798 0 1.326.598 1.42 1.302zM61.014 4.154c-1.725 0-2.746 1.185-2.746 2.687 0 1.501 1.02 2.686 2.746 2.686.739 0 1.466-.316 1.818-.739a.538.538 0 00.164-.387c0-.235-.187-.446-.504-.446-.2 0-.329.164-.47.282a1.49 1.49 0 01-.997.364c-1.09 0-1.654-.822-1.654-1.76 0-.94.563-1.76 1.654-1.76.387 0 .728.129.998.363.14.118.27.282.469.282.317 0 .504-.211.504-.446a.538.538 0 00-.164-.387c-.352-.423-1.08-.74-1.818-.74zM66.188 8.93V5.21h1.009a.45.45 0 00.458-.458.45.45 0 00-.458-.458h-1.01V2.757a.536.536 0 00-.55-.551.536.536 0 00-.552.551v1.537h-.892a.45.45 0 00-.457.458c0 .258.2.458.457.458h.892v3.72c0 .304.223.55.551.55a.536.536 0 00.552-.55zM73.44 6.84c0-1.478-1.057-2.686-2.688-2.686-1.63 0-2.687 1.208-2.687 2.687 0 1.478 1.056 2.686 2.687 2.686 1.631 0 2.687-1.208 2.687-2.686zm-1.104 0c0 .951-.551 1.749-1.584 1.749-1.032 0-1.584-.798-1.584-1.748s.552-1.749 1.584-1.749c1.033 0 1.584.798 1.584 1.749zM78.883 8.026c0-.95-.657-1.291-1.924-1.655-.845-.246-1.197-.375-1.197-.774 0-.41.4-.563.986-.563.422 0 .786.093 1.115.27.176.093.328.164.48.164.306 0 .423-.2.423-.41 0-.236-.223-.423-.54-.576a3.468 3.468 0 00-1.455-.328c-1.267 0-2.076.575-2.076 1.455 0 .844.528 1.337 1.97 1.724.822.223 1.15.376 1.15.775 0 .363-.34.598-.973.598-.563 0-1.01-.223-1.326-.457-.13-.094-.246-.165-.434-.165-.235 0-.423.153-.423.387 0 .153.07.329.235.458.47.364 1.127.598 1.866.598 1.396 0 2.123-.633 2.123-1.501z" stroke-width=".01173"/></g></svg>